<svg version="1.1" xmlns="http://www.w3.org/2000/svg" xmlns:xlink="http://www.w3.org/1999/xlink" width="572" height="572" viewBox="0,0,256,256"><g transform=""><g fill="#000033" fill-rule="nonzero" stroke="none" stroke-width="1" stroke-linecap="butt" stroke-linejoin="miter" stroke-miterlimit="10" stroke-dasharray="" stroke-dashoffset="0" font-family="none" font-weight="none" font-size="none" text-anchor="none" style="mix-blend-mode: normal"><path d="M0,256v-256h256v256z" id="bgRectangle"></path></g><g fill="none" fill-rule="nonzero" stroke="none" stroke-width="1" stroke-linecap="butt" stroke-linejoin="miter" stroke-miterlimit="10" stroke-dasharray="" stroke-dashoffset="0" font-family="none" font-weight="none" font-size="none" text-anchor="none" style="mix-blend-mode: normal"><g transform="translate(10.11809,-15.608) scale(0.44755,0.44755)"><path d="M325.007,242.86l7.255,-2.352l-18.19,-56.1l-7.255,2.352z" fill="#ffffff"></path><path d="M325.006,242.86l7.255,-2.353l-0.472,10.907z" fill="#ffffff"></path><path d="M331.788,251.414l0.222,-5.124l-3.408,1.105z" fill="#0eff07"></path><path d="M358.431,342.907v-7.587h9.283v-5.195h-101.87v17.977h101.87v-5.195z" fill="#80fbff"></path><path d="M360.596,335.32h-79.727v7.585h79.727z" fill="#ffffff"></path><path d="M346.179,325.244v-7.125h4.648v-4.881h-64.827v16.888h64.827v-4.882z" fill="#384bf5"></path><path d="M346.18,318.119h-55.071v7.125h55.071z" fill="#ffffff"></path><path d="M360.453,299.619l-2.297,1.422l1.824,3.034l-8.857,5.258l-1.788,-2.831l-2.321,1.436l23.604,37.986l13.439,-8.317z" fill="#80fbff"></path><path d="M359.98,304.074l0.003,0.003l-8.86,5.255l19.045,30.648l8.756,-5.419z" fill="#ffffff"></path><path d="M440.684,361.879v-16.108h-186.683v16.108z" fill="#ffffff"></path><path d="M448.735,266.271h-16.104v239.814h16.104z" fill="#818181"></path><path d="M339.08,266.271h-16.103v239.814h16.103z" fill="#818181"></path><path d="M482.58,274.325v-16.108h-295.729v16.108z" fill="#ffffff"></path><path d="M482.582,506.084v-16.107h-282.772v16.107z" fill="#818181"></path><path d="M214.756,506.084v-16.107h-20.943v16.107z" fill="#0eff07"></path><path d="M491.375,506.085v-16.108h-20.943v16.108z" fill="#0eff07"></path><path d="M381.466,421.166v51.689h-18.111v-33.62c0,-9.979 8.109,-18.069 18.111,-18.069z" fill="#0eff07"></path><path d="M499.957,421.166v51.689h18.111v-33.62c0,-9.979 -8.108,-18.069 -18.111,-18.069z" fill="#0eff07"></path><path d="M462.893,329.399h-7.672v-18.602c0,-7.951 -6.483,-14.419 -14.453,-14.419c-7.969,0 -14.451,6.468 -14.451,14.419v18.602h-7.672v-18.602c-0.004,-12.171 9.922,-22.072 22.122,-22.072c12.2,0 22.126,9.901 22.126,22.072z" fill="#0eff07"></path><path d="M506.084,472.854h-130.633v-87.24c0,-35.986 29.243,-65.161 65.318,-65.161c36.072,0 65.317,29.173 65.317,65.161v87.24z" fill="#80fbff"></path><path d="M444.587,373.742h-7.639c-20.201,0 -36.579,16.337 -36.579,36.491v44.112h80.795v-44.112c0.001,-20.154 -16.376,-36.491 -36.577,-36.491z" fill="#384bf5"></path><path d="M440.769,393.08c9.074,0 16.429,-7.338 16.429,-16.389c0,-9.052 -7.355,-16.39 -16.429,-16.39c-9.074,0 -16.429,7.338 -16.429,16.39c0,9.051 7.355,16.389 16.429,16.389z" fill="#0eff07"></path><path d="M131.698,358.449h-16.188v141.318h16.188z" fill="#818181"></path><path d="M25.1304,232.826v114.325c0,10.413 8.422,18.863 18.8299,18.893l81.3087,0.23v16.195l-86.5142,-0.244c-16.4805,-0.045 -29.81535,-13.426 -29.81535,-29.913l0.00158,-119.486z" fill="#818181"></path><path d="M51.7688,366.217l-0.1243,-16.196l110.4165,0.33v16.195z" fill="#ffffff"></path><path d="M41.0921,318.206l-16.1878,0.124l0.3289,-108.053h16.1878z" fill="#ffffff"></path><path d="M62.7024,505.755l-0.1243,-16.194l118.7409,0.327v16.196z" fill="#818181"></path><path d="M186.311,505.92v-16.195h-21.052v16.195z" fill="#0eff07"></path><path d="M81.9492,505.92v-16.195h-21.0518v16.195z" fill="#0eff07"></path><path d="M24.9046,232.826h-16.1878v21.062h16.1878z" fill="#0eff07"></path><path d="M465.898,170.961l-19.939,57.986l6.743,2.31l19.939,-57.986z" fill="#0eff07"></path><path d="M447.557,147.663l-4.842,5.224l22.499,20.78l4.842,-5.224z" fill="#0eff07"></path><path d="M453.647,238.816h-7.129v14.734h7.129z" fill="#0eff07"></path><path d="M443.909,146.252h-21.466v7.116h21.466z" fill="#0eff07"></path><path d="M457.55,252.602h-69.638v5.616h69.638z" fill="#384bf5"></path><path d="M428.015,139.114c-3.933,-4.311 -10.62,-4.626 -14.934,-0.701l-14.555,13.236l14.245,15.611l14.555,-13.237c4.313,-3.922 4.622,-10.598 0.689,-14.909z" fill="#80fbff"></path><path d="M415.384,164.865l-14.226,-15.589c-11.167,-5.841 -25.242,-4.485 -35.093,4.474l-0.331,0.301l41.595,45.582l0.331,-0.302c9.852,-8.958 12.512,-22.822 7.724,-34.466z" fill="#384bf5"></path><path d="M457.55,226.957h-15.335v14.891h15.335z" fill="#80fbff"></path><path d="M444.555,156.644c3.78,0 6.845,-3.059 6.845,-6.833c0,-3.773 -3.065,-6.832 -6.845,-6.832c-3.781,0 -6.846,3.059 -6.846,6.832c0,3.774 3.065,6.833 6.846,6.833z" fill="#384bf5"></path><path d="M469.275,178.943c3.781,0 6.846,-3.059 6.846,-6.833c0,-3.774 -3.065,-6.833 -6.846,-6.833c-3.78,0 -6.845,3.059 -6.845,6.833c0,3.774 3.065,6.833 6.845,6.833z" fill="#384bf5"></path><path d="M367.17,252.225h-71.363v5.447h71.363z" fill="#818181"></path><path d="M441.256,307.245c3.009,0 5.448,-2.439 5.448,-5.448c0,-3.008 -2.439,-5.447 -5.448,-5.447c-3.008,0 -5.447,2.439 -5.447,5.447c0,3.009 2.439,5.448 5.447,5.448z" fill="#ffffff"></path><path d="M198.871,202.652c-5.822,-14.384 -4.879,-28.324 -4.879,-28.324c0,0 10.381,9.382 16.202,23.766c5.82,14.384 4.879,28.324 4.879,28.324c0,0 -10.381,-9.382 -16.202,-23.766z" fill="#0eff07"></path><path d="M240.872,204.26c-7.963,13.324 -19.663,21.007 -19.663,21.007c0,0 1.211,-13.92 9.175,-27.243c7.964,-13.323 19.663,-21.006 19.663,-21.006c0,0 -1.212,13.919 -9.175,27.242z" fill="#0eff07"></path><path d="M221.03,167.455c3.354,-12.576 11.023,-21.459 11.023,-21.459c0,0 2.231,11.508 -1.123,24.085c-3.353,12.577 -11.023,21.46 -11.023,21.46c0,0 -2.232,-11.51 1.123,-24.086z" fill="#0eff07"></path><path d="M209.125,169.763c-2.538,-8.048 -1.429,-15.566 -1.429,-15.566c0,0 5.226,5.53 7.764,13.578c2.538,8.048 1.429,15.566 1.429,15.566c0,0 -5.225,-5.53 -7.764,-13.578z" fill="#0eff07"></path><path d="M218.043,234.792c-0.905,-22.832 2.016,-47.634 2.045,-47.882l0.853,0.101c-0.03,0.248 -2.943,24.984 -2.041,47.748z" fill="#0eff07"></path><path d="M217.994,233.245c-1.872,-5.892 -4.434,-8.634 -4.459,-8.661l0.622,-0.59c0.109,0.115 2.718,2.893 4.655,8.992z" fill="#0eff07"></path><path d="M218.843,233.3l-0.771,-0.376c0.331,-0.674 3.17,-8.227 4.625,-12.127l0.805,0.299c-0.173,0.461 -4.227,11.324 -4.659,12.204z" fill="#0eff07"></path><path d="M219.095,197.074c-0.009,-5.121 -3.182,-15.284 -3.214,-15.386l0.819,-0.256c0.132,0.422 3.244,10.39 3.253,15.641z" fill="#0eff07"></path><path d="M224.932,259.852h-12.474c-4.821,0 -8.861,-3.631 -9.352,-8.405l-3.432,-27.242h37.553l-2.93,27.106c-0.426,4.833 -4.492,8.541 -9.365,8.541z" fill="#384bf5"></path><path d="M239.697,222.809h-42.492v2.793h42.492z" fill="#0eff07"></path></g></g></g></svg>