<?xml version="1.0" encoding="UTF-8"?>
<svg version="1.1" viewBox="0 0 2048 2048" width="1280" height="1280" xmlns="http://www.w3.org/2000/svg">
<path transform="translate(97,32)" d="m0 0h190l1 1v223h128v-110l5-13 5-9 10-12 11-8 15-7 5-1h121l13 4 11 6 12 11 6 7 7 15 2 8 1 11 1 66 8-15 8-8 12-7 7-2h22l10 3 11 7 7 7 6 10 3 7 1 6v24l575-1 1-27 4-10 7-10 5-5 8-6 12-5h23l12 4 11 8 7 9 6 11 1-72 4-16 6-12 10-12 11-8 15-7 5-1h121l13 4 11 6 12 11 6 7 8 16 2 11v105h128v-223l1-1h190l1 1v223h63l1 1v62l-10 1h-54v223l-5 1h-186l-1-1v-223h-125l1 4 1 27 3 44 2 31 4 70 6 108 11 175 1 26v77l-1 54-3 65-4 57-5 54-5 38-6 32-7 30-10 35-11 32-13 32-14 31-10 21-14 24-11 18-17 26-26 39-3 9-9 37-9 39-11 46-17 73-11 46-9 39-11 46-10 42-17 71-22 94-1 3-2 1h-703l-3-7-21-89-15-64-10-41-13-56-7-29-10-42-13-56-9-38-10-42-18-78-11-18-29-43-10-16-15-25-10-18-24-54-13-34-11-34-9-34-8-40-5-35-6-60-4-54-3-63-1-36v-121l15-242 2-42 2-29 2-42 2-22 1-27 3-38 1-27h-124v223l-10 1h-181l-1-1v-223h-63l-1-1v-63h64v-223zm639 288-1 32-4 4-108 81-15 11-2 30-3 26-26 286-1 10 19 85 39 176 6 26 9 8 12 7 13 9 117 78 41 27 11 6 20 14 30 20 11 7 21 14h3v-83l-8-5-15-9-14-10-11-9-15-14-7-8-10-12-12-17-10-18-8-17-7-20-5-18-4-22-2-23-17-1-16-3-17-7-12-8-11-10-9-12-8-16-3-9-2-11v-178l4-27 6-27 11-33 11-24 11-21 11-17 10-14 13-16 11-12 17-17 11-9 17-13 20-13 21-12 17-8 29-11 22-6 25-5 12-2 11-1h57l25 3 28 6 26 8 21 8 16 8 19 10 17 11 15 11 16 13 13 12 12 12 9 11 10 12 14 20 11 19 10 19 11 27 8 25 6 28 3 21 1 18v158l-2 16-4 12-7 14-11 14-9 8-13 8-12 5-15 4-22 2-3 27-5 24-6 21-10 24-11 20-8 12-9 12-12 14-14 14-11 9-14 10-15 9-10 5v85l5-2 90-60 15-9 43-29 44-29 43-29 35-23 10-7 3-3 19-86 44-198v-11l-6-64-5-58-7-74-5-58-5-51-2-17-1-21-8-7-19-14-21-16-19-14-21-16-19-14-17-13-3-2-1-33z" fill="#EE9C88"/>
<path transform="translate(97,32)" d="m0 0h190l1 1v223h128v-110l5-13 5-9 10-12 11-8 15-7 5-1h121l13 4 11 6 12 11 6 7 7 15 2 8 1 11 1 66 8-15 8-8 12-7 7-2h22l10 3 11 7 7 7 6 10 3 7 1 6v24l576-1v64l-5 1h-571v32l-5 5-108 81-14 10-2 30-3 26-26 286-1 10 19 85 39 176 6 26 8 7 12 7 13 9 117 78 41 27 11 6 10 7 6 4 1 4-3 15-18 71-35 140-2 11-1 153-1 25-3 28-4 23-7 26-11 29-10 21-12 19-9 11-11 12-10 9-17 11-15 7-20 6-18 3h-18l-3-3-9-38-13-56-7-29-10-42-13-56-9-38-10-42-18-78-11-18-29-43-10-16-15-25-10-18-24-54-13-34-11-34-9-34-8-40-5-35-6-60-4-54-3-63-1-36v-121l15-242 2-42 2-29 2-42 2-22 1-27 3-38 1-27h-124v223l-10 1h-181l-1-1v-223h-63l-1-1v-63h64v-223z" fill="#EE9C89"/>
<path transform="translate(995,448)" d="m0 0h57l25 3 28 6 26 8 21 8 16 8 19 10 17 11 15 11 16 13 13 12 13 13 9 11 10 12 14 20 11 19 10 19 11 27 8 25 6 28 3 21 1 18v158l-2 16-4 12-7 14-11 14-10 9-13 8-12 5-15 4-8 1h-14l-1 20-5 28-7 24-10 24-11 20-8 12-9 12-12 14-15 15-11 9-14 10-15 9-8 4h-2l1 84 7-4 22-15h2l1 17v24l-1 24-3 20-7 19-10 19-9 12-9 10-11 10-16 11-18 8-17 5-16 3h-25l-20-4-15-5-17-8-12-8-13-11-9-10-10-14-8-16-7-18-3-14-1-12v-62l5 2 24 16 3 1-1-83-19-11-17-12-11-9-16-15-7-8-10-12-12-17-10-18-8-17-7-20-5-18-4-22-1-10v-13h-17l-16-3-17-7-12-8-12-11-9-12-8-16-3-9-2-11v-178l4-27 6-27 11-33 11-24 11-21 11-17 10-14 13-16 11-12 18-18 11-9 17-13 20-13 21-12 17-8 29-11 22-6 25-5 12-2z" fill="#EE9C88"/>
<path transform="translate(858,1233)" d="m0 0 5 2 33 22 1 63 2 17 3 12 8 20 6 11 8 11 12 14 15 12 16 9 17 7 21 5 6 1h25l21-4 17-6 16-8 14-10 12-11 8-9 10-15 10-21 5-17 2-15 1-24v-42l35-23h1l7 30 8 31 11 43 17 69 15 60 1 6 1 40v85l1 49 2 25 4 25 8 32 8 22 7 16 9 17 8 12 9 12 14 15 14 10 14 8 14 6 17 5 18 3h14l6-3-2 11-32 136-4 16-2 1h-703l-3-7-21-89-15-64 1-2 1 1h18l18-3 20-6 17-8 16-11 13-12 9-10 12-17 10-18 9-20 8-22 7-26 5-30 2-21 1-25 1-153 5-23 37-148 15-59 1-8z" fill="#2A8FFD"/>
<path transform="translate(995,448)" d="m0 0h57l25 3 28 6 26 8 21 8 16 8 19 10 17 11 15 11 16 13 13 12 13 13 9 11 10 12 14 20 11 19 10 19 11 27 8 25 6 28 3 21 1 18v126h-2l-5-13-9-13-10-8-14-7-11-3-44-1-1-1-1-29-34-7-15-6-15-8-13-10-10-9-11-12-13-18-12-21-4-6-4 2-14 14-11 9-14 11-15 10-18 10-15 7-25 9-21 6-29 6-32 5 3 10 3 17v22l-3 17-5 14-5 9-8 9-9 4-8-1-8-6-7-8-7-16-4-20v-25l4-21h-12l-56 2v30l-4 1-42 1-16 5-11 7-9 8-8 13-4 11-2 4v-144l4-27 6-27 11-33 11-24 11-21 11-17 10-14 13-16 11-12 18-18 11-9 17-13 20-13 21-12 17-8 29-11 22-6 25-5 12-2z" fill="#343B41"/>
<path transform="translate(1761,32)" d="m0 0h190l1 1v223h63l1 1v62l-10 1h-54v223l-5 1h-186l-1-1v-223h-313l-39-1v-30l1-1h223v-32h128v-223z" fill="#2A8FFD"/>
<path transform="translate(97,32)" d="m0 0h190l1 1v223h128v31l185 1h36l3 2v17l-1 12-15 1h-336v223l-10 1h-181l-1-1v-223h-63l-1-1v-63h64v-223z" fill="#764BFC"/>
<path transform="translate(1395,1096)" d="m0 0h3l-1 3h-3v2h-2l-2 4-7 11-12 18-8 14-6 10-20 40-9 21-12 31-5 16-2 8h3l1 7 1 37 1 20 2 27 3 21 2 24 2 25 2 22 1 5 2 16 5 39 3 16 1 9 3 12 3 13 4 18 5 14 4 15 2 4 3 1 6-5 1-2h3l2-4h2l2-4h2l1-3h2l4-8 5-5 4-6h2l1-5 6-9 5-12h2l5-15 1-9-3-16-3-15-2-13-2-16v-22l2-12 3-14 4-16 5-12 5-10 8-11v-2l8-7 5-4h2v-2l11-6 6-3 13-4 17-4 49 3h33l2 2-1 5-10 19-17 28-12 19-34 51-3 9-9 37-9 39-11 46-17 73-11 46-9 39-11 46-10 42-2 5-6 4h-14l-22-4-21-7-17-9-13-9-10-9-11-12-9-13-8-13-11-21-9-24-7-25-5-25-3-22-1-16-1-49v-85l-1-40-6-27-32-128-11-42-9-37v-6l27-18 15-9 43-29 44-29 43-29z" fill="#CF7E6C"/>
<path transform="translate(652,1097)" d="m0 0 4 1 30 20 44 29 10 7 51 34 41 27 11 6 10 7 6 4 1 4-3 15-18 71-35 140-2 11-1 153-1 25-3 28-4 23-7 26-11 29-10 21-12 19-9 11-11 12-10 9-17 11-15 7-20 6-18 3h-18l-3-3-9-38-13-56-7-29-10-42-13-56-9-38-10-42-18-78-11-18-29-43-5-8 1-7-4-2-5-12v-2l-2-2-2-6-2-1-2-6-5-8v-2l-2-1-2-5 3-4 7-1 16 1 4-1h21l8-1h16l20 3 15 4 13 8 9 7 7 8 4 5v2l3 1 4 9 5 9 5 17 2 6 2 15 1 5 1 14v11l-3 19-2 8-3 17-1 4-2 11-1 9-2 8v9l8 18 5 8 3 5v2h2l6 10 7 9 5 5 10 9 12 7 8 3 7-1 3-5 2-9 1-4h2l2-12 2-5 2-9 3-12 4-19 2-6 3-23 1-4 3-25 3-20 4-46v-11l2-36 1-13v-22l1-31-1-28 1-3 3-1-6-21-8-24-12-31-7-15-8-17-8-16-6-9-5-10-7-10-10-16-6-9-7-9z" fill="#CF7E6C"/>
<path transform="translate(1118,611)" d="m0 0h3l8 16 15 25 10 15 12 17 13 16 11 11 12 9 24 12 21 6 2 28 1 1h33l19 3 16 8 13 11 4 4 3 5 5 7v70l-2-1-5-11-7-11-11-9-14-7-11-3-44-1-1-1-1-29-34-7-15-6-15-8-13-10-10-9-11-12-13-18-12-21-4-6-4 2-14 14-11 9-14 11-15 10-18 10-15 7-25 9-21 6-29 6-32 5 3 10 3 17v22l-3 17-5 14-5 9-8 9-9 4-8-1-8-6-7-8-7-16-4-20v-25l4-21h-12l-56 2v30l-4 1-42 1-16 5-11 7-9 8-8 13-4 11-2 4v-83h1l1 5 4-8 3-5 7-8 16-8 13-4 12-2 21-1h15l2-1 2-28 38-3 32-3 28-3 29-5 17-4 25-8 28-11 16-8 15-8 15-10 17-12 13-11 11-9 8-8 7-6 5-5 4-5 8-7z" fill="#2A2E33"/>
<path transform="translate(1632,256)" d="m0 0h127l1 29 1 4 1 15 3 9 4 15 6 23 6 19 5 12 6 10 6 7 10 7 11 5 11 3 11 2h24l19-3 14-5 13-7 7-7 8-14 7-18 9-32 6-29 2-8 1-32 1-5h63l1 1v62l-10 1h-54v223l-5 1h-186l-1-1v-223h-313l-39-1v-30l1-1h223z" fill="#245DE7"/>
<path transform="translate(32,256)" d="m0 0h64l2 43 5 18 6 25 7 25 6 16 8 11 7 7 9 6 11 5 18 3 17 1h15l20-4 11-5 10-6 8-9 7-12 6-17 7-25 7-31 2-5 1-6h2v-37l1-3h127v31l185 1h36l3 2v17l-1 12-15 1h-336v223l-10 1h-181l-1-1v-223h-63l-1-1z" fill="#245EE7"/>
<path transform="translate(995,448)" d="m0 0h57l25 3 28 6 26 8 21 8 16 8 19 10 17 11 15 11 16 13 13 12 13 13 9 11 10 12 14 20 11 19 10 19 11 27 8 25 6 28 3 21 1 18v126h-2v-97l-2-4-3-12-7-25-9-25-12-26-12-22-12-18-9-12-7-8v-2h-2l-5-6v-2h-2l-7-8-11-11-7-5-5-5-9-7-10-8-6-4-13-9-9-5-13-8-20-9-20-8-27-8-28-6-32-4h-39l-16 2-24 4-20 4-8 3-17 5-16 6-19 8-18 10-8 5h-2v2l-8 4-11 8-10 8-5 2v2l-8 6-4 4h-2l-2 4-12 12h-2l-2 4-10 11-4 6h-2l-1 4h-2l-2 5-1 2h-2v2h-2l-2 5-9 13-7 11-6 13h-2l-2 6-3 7-4 11-7 20-3 11-4 9-5 20-1 8-3 7h-1l-1-9v-41l4-27 6-27 11-33 11-24 11-21 11-17 10-14 13-16 11-12 18-18 11-9 17-13 20-13 21-12 17-8 29-11 22-6 25-5 12-2z" fill="#424952"/>
<path transform="translate(1311,255)" d="m0 0h1v64l-5 1h-571v-64z" fill="#343B41"/>
<path transform="translate(97,32)" d="m0 0h95v384h-17l-18-3-16-8-12-11-6-8-5-10-8-27-7-27-3-13-3-10-1-23v-243z" fill="#2A8FFD"/>
<path transform="translate(1761,32)" d="m0 0h91l4 2v33l-1 122v228h-14l-19-4-12-5-9-6-8-7-7-11-5-11-5-15-7-25-4-18-3-6-1-5-1-15-1-4 1-252z" fill="#764BFC"/>
<path transform="translate(833,1216)" d="m0 0 5 2 21 14 1 4-3 15-18 71-35 140-2 11-1 153-1 25-3 28-4 23-7 26-11 29-10 21-12 19-9 11-11 12-10 9-17 11-15 7-20 6-18 3h-18l-3-3-6-26 1-3 5 1 26-3 16-4 17-7 11-7 13-12 9-10 11-17 8-15 8-20 7-24 5-25 4-33 1-26v-147l2-13 10-42 18-71 10-41 9-38 12-48z" fill="#E1EAF5"/>
<path transform="translate(1213,1216)" d="m0 0 4 2 6 21 14 57 13 54 22 87 7 33 1 171 3 28 5 30 6 22 8 22 4 9 8 16 12 17 15 15 11 8 15 8 15 5 17 3 20 1 3-1-4 19-3 9-6 4h-14l-22-4-21-7-17-9-13-9-10-9-11-12-9-13-8-13-11-21-9-24-7-25-5-25-3-22-1-16-1-49v-85l-1-40-6-27-32-128-11-42-9-37v-6z" fill="#E1EAF5"/>
<path transform="translate(1114,1250)" d="m0 0h4l1 3 1 24v40l-3 18-5 15-8 15-10 13-8 8-10 7-15 8-16 5-9 2-17 1-17-3-15-5-12-6-11-8-10-9-7-8-6-10-6-12-4-13-3-17v-39h1l1 19 6 2 2 20 2 3 1 7 7 14 3 4v2l4-1 2-7 1-20v-18l2-13 4-6h2l2-4 10-8 9-1h17l21 2 26-1 17-3 14-5 7-2 7-3 9-3 7-5h2z" fill="#EE9C88"/>
<path transform="translate(652,1097)" d="m0 0 4 1 30 20 44 29 10 7 93 62-4 10-6 24-13 53-7 30-28 112-3 13h-2l-1 6-1-4 2-12 1-9v-21l-3-1-3-9-1-6h2l-2-7-1-11-2-5-1-7v-8l-3-8-1-13-3-10-2-12-5-25-3-10-3-9-9-29-8-21-7-18-7-15-8-17-8-16-6-9-5-10-7-10-10-16-6-9-7-9z" fill="#BA7E76"/>
<path transform="translate(1395,1096)" d="m0 0h3l-1 3h-3v2h-2l-2 4-7 11-12 18-8 14-6 10-20 40-9 21-12 31-5 16-5 18-3 16-3 11-2 13-5 18-5 24-4 20-2 15-4 8-6 1-1 5h-2l4 16v6h-2l-27-107-10-43-17-67-2-5 15-9 43-29 44-29 43-29z" fill="#BA7E76"/>
<path transform="translate(1321,1828)" d="m0 0 7 4 7 3 17 9 21 7 22 4h14l6-3-2 11-32 136-4 16-2 1h-87l-2-3 5-26 4-23 8-44 7-39 7-37 3-15z" fill="#245EE7"/>
<path transform="translate(723,1828)" d="m0 0 4 1 2 7 7 37 13 74 8 40 3 17 1 12h-89l-3-7-21-89-15-64 1-2 1 1h18l18-3 20-6 17-8z" fill="#245EE7"/>
<path transform="translate(1632,256)" d="m0 0h127l2 49v8l-1 7h-313l-39-1v-30l1-1h223z" fill="#343B41"/>
<path transform="translate(289,256)" d="m0 0h127v31l185 1h36l3 2v17l-1 12-15 1h-337v-24l1-37z" fill="#343B41"/>
<path transform="translate(286,296)" d="m0 0h1l1 24v223l-10 1h-87l1-127 22-2 16-4 14-7 8-7 9-13 6-14 8-28 8-35 2-5z" fill="#562FBA"/>
<path transform="translate(1760,289)" d="m0 0h1l1 15 3 9 4 15 6 23 6 19 5 12 6 10 6 7 10 7 11 5 11 3 11 2 14 1 1 62v64l-56 1h-39l-1-1z" fill="#552FB7"/>
<path transform="translate(896,1258)" d="m0 0 5 2 24 16 3 1 1 41 3 17 6 18 8 14 8 10 7 7 14 10 12 6 15 5 17 3 17-1 19-5 12-5 12-7 10-8 10-11 9-15 6-14 4-17 1-8 1-39 11-7 19-13h2l1 17v24l-1 24-3 20-7 19-10 19-9 12-9 10-11 10-16 11-18 8-17 5-16 3h-25l-20-4-15-5-17-8-12-8-13-11-9-10-10-14-8-16-7-18-3-14-1-12z" fill="#E1EAF5"/>
<path transform="translate(928,1197)" d="m0 0 4 5 3 2 2-2 8 1 20 6 9 3 10 2 16 3 2 1 28 1 21-2 15-3 15-4 11-3 12-4 8-2 5-2 1-2h2v80h-1l-1-27h-4v2l-9 6-9 3-9 4-17 5-11 3-14 1-21 1-23-2h-16l-7 1-10 8-2 3h-2l-2 5-1 4-2 10v19l-1 19-2 7-5 1-8-13-1-6-2-1-2-9-1-3-2-18-4-1-1 8h-1l-1-28z" fill="#CE7D6C"/>
<path transform="translate(1145,1687)" d="m0 0h11l17 3 12 5 12 7 11 8 7 7 9 12 6 10 6 17 1 6v18l-4 12-8 11-8 6-9 4-8 2h-10l-15-3-13-5-11-6-9-7-13-13-10-15-6-14-4-18v-9l3-12 6-10 8-8 8-5z" fill="#FCFCFC"/>
<path transform="translate(1148,768)" d="m0 0h9l6 3 5 4 8 14 5 15 3 16v21l-2 13-4 15-7 14-8 9-9 4-8-1-8-6-6-7-6-12-4-14-2-12v-23l3-17 3-10 7-14 7-8z" fill="#2A2E34"/>
<path transform="translate(1019,1057)" d="m0 0h10l7 4 8 9 6 13 4 15 2 18v10l-4 24-6 16-8 11-9 6h-11l-6-4-8-9-6-13-4-15-2-15v-11l2-16 4-17 7-14 8-9z" fill="#FDFDFD"/>
<path transform="translate(858,1233)" d="m0 0 5 2 33 22 1 63 2 17 1 10-19-9-17-9-16-7-8-2 1-10 17-67 1-8z" fill="#28A0FE"/>
<path transform="translate(1187,1234)" d="m0 0h1l7 30 8 31 5 19v5l-9 3-40 20-5 2-5 1-1 2 3-24 1-24v-42z" fill="#28A0FE"/>
<path transform="translate(1952,256)" d="m0 0h63l1 1v62l-10 1h-54z" fill="#2B2F34"/>
<path transform="translate(32,256)" d="m0 0h63l1 28v36h-63l-1-1z" fill="#343B41"/>
<path transform="translate(1159,1591)" d="m0 0h7l13 4 9 5 9 9 5 8 3 8 1 10-3 9-7 8-6 3h-13l-11-4-9-6-7-7-5-8-4-12v-9l4-9 8-7z" fill="#FBFCFC"/>
<path transform="translate(1272,1437)" d="m0 0 2 4 6 22 2 15 1 39v115l2 28 3 17 4 16 2 6 1 8 2 4 4 10 1 9 3 1 2 7 3 3 3 7 4 6v2l5 2 5 8 7 10v2h2l2 4 6 5v2l4 2 5 4 5 3v2h2v2l4 2 10 6 6 3 11 3 1 2 10 3 2 1 15 2v2l-20-1-20-4-14-5-15-8-13-11-13-13-12-18-8-15-10-27-6-21-5-26-3-25-1-11-1-171-6-28z" fill="#EF9D89"/>
<path transform="translate(770,1458)" d="m0 0 1 4-2 13v147l-1 26-4 33-5 25-8 27-9 21-9 16-9 13-9 10-8 8-2-1 11-11 4-6 7-9 10-17 10-23 5-16 5-18 4-20 4-37 1-163 2-16z" fill="#EF9D89"/>
<path transform="translate(132,87)" d="m0 0h8l10 5 6 7 2 7-1 7-6 5-2 1-9-1-7-4-6-8-2-6 1-7 4-5z" fill="#FAFBFC"/>
<path transform="translate(1891,88)" d="m0 0h11l10 6 5 7 1 3v8l-5 6-7 2-9-3-7-6-4-7v-11z" fill="#FAFBFC"/>
<path transform="translate(487,286)" d="m0 0h107l45 1 2 2v25l-1 6-3 1-95 1-129-1v30h-2l1-31 29-1h198v-29l-2-1h-48l-173-1v-1z" fill="#C37D70"/>
<path transform="translate(97,33)" d="m0 0h4l1 5-2 5 1 9v58l-1 4v65l1 22v23l-1 8-1 22-2-2z" fill="#28A1FF"/>
<path transform="translate(416,288)" d="m0 0h221l-4 2-25 1h-148l-44-2z" fill="#424952"/>
<path transform="translate(1409,288)" d="m0 0h220v1l-98 2h-57l-34-1-31-1z" fill="#424952"/>
<path transform="translate(611,1759)" d="m0 0 3 2 1 4-1 4h2l-1 5 4 2 1 9 1 5 2 1 3 15 5 9v2h2l3 5 14-1 14-2 17-5 3 1-16 6-25 4-15 1-3-3-10-42-4-17z" fill="#ED9B88"/>
<path transform="translate(1948,32)" d="m0 0h3v172h-1l-1-96-1-5-1-14v-22l2-16-1-7-1-2 1-2-3-1-1-2-7-1v-1l-13-1v-1z" fill="#28A1FF"/>
<path transform="translate(487,286)" d="m0 0h107l40 1-3 2h-42l-173-1v-1z" fill="#BE7E74"/>
<path transform="translate(739,314)" d="m0 0 2 1 3-1 3 1v2l8-1h13l14-1 23 2 130 1v1h-198l1-4z" fill="#2A2E33"/>
<path transform="translate(385,786)" d="m0 0h1l1 71v19l-1 53h-1l-1-19v-121z" fill="#C57F72"/>
<path transform="translate(919,1381)" d="m0 0 4 1 12 13 5 6 6 4 4 4 11 7 5 6 2 2-4-1-12-6-11-9-6-5v-2l-3-1-11-14z" fill="#FDFDFD"/>
<path transform="translate(96,33)" d="m0 0h1l1 219 1 6h-3z" fill="#2A8AFB"/>
<path transform="translate(563,1556)" d="m0 0 3 1 1 7 1 4-1 2h2l3 7v4l1 5v2h2v8l2 4v2l2 2v8l2 3-1 1v6l-2 1-7-29-8-34z" fill="#ED9B87"/>
<path transform="translate(94,256)" d="m0 0h1v37l-3-1-2-16h-2l-1-10 1-5-3-2v-2z" fill="#2A2E33"/>
<path transform="translate(1250,316)" d="m0 0 10 1 4-1 5 1 4-1 7 1 2-1 2 1 10 1v1h-110v-1l56-1z" fill="#2A2E33"/>
<path transform="translate(1603,289)" d="m0 0h28v2l-13 3h-18l-9-2-1-2z" fill="#2A2E33"/>
<path transform="translate(289,317)" d="m0 0 3 1 120 1v1h-125v-2z" fill="#434952"/>
<path transform="translate(1618,315)" d="m0 0 5 1h13l1 3-4 1-42-1-2-2 26-1z" fill="#2A2E33"/>
<path transform="translate(908,794)" d="m0 0h8l6 1v1l-30 2-18 2h-6l-4-3 34-2z" fill="#444A52"/>
<path transform="translate(1948,32)" d="m0 0h3v17l-2-1-2-6 1-2-3-1-1-2-7-1v-1l-13-1v-1z" fill="#2AA0FE"/>
<path transform="translate(579,1624)" d="m0 0 3 1 1 5-1 3 4 2-2 1 1 4h2l1 5-1 4 2 2h-2v3h2v2l-3 1-7-29z" fill="#EF9E8A"/>
<path transform="translate(555,1521)" d="m0 0 3 1v7l2 1-1 4h2v3l2 1 1 10-1 7-2-3-6-26z" fill="#EA9986"/>
<path transform="translate(930,1308)" d="m0 0h1l2 18 3 9v10h-2l-3-10-1-13z" fill="#D28372"/>
<path transform="translate(587,1657)" d="m0 0 4 1v12h2l-1 3 3 3 1 6-1 5-1 4-7-29z" fill="#ED9B88"/>
<path transform="translate(547,1488)" d="m0 0 3 1 1 5-1 3 2 1 1 4 1 2 1 1 1 4-1 4v5h2v2l-3 1-6-24z" fill="#EF9D89"/>
<path transform="translate(523,1441)" d="m0 0 4 2 4 5 1 4 7 7 1 6 3 3v2l-3-1-10-16-7-10z" fill="#EF9D89"/>
<path transform="translate(1756,261)" d="m0 0h2l1 30-2 1-1-5-1-15-1-5z" fill="#2A2E33"/>
<path transform="translate(1757,293)" d="m0 0 2 1 2 11v8l-1 6-2-2z" fill="#2B2F34"/>
<path transform="translate(703,1801)" d="m0 0 2 1-9 7-9 5-3-1 4-1v-2l10-6h2v-2z" fill="#EF9D89"/>
<path transform="translate(652,1097)" d="m0 0 4 1 6 4 1 5-2 2-6-7z" fill="#D28270"/>
<path transform="translate(681,1814)" d="m0 0 3 1-16 6-10 1 2-2z" fill="#EF9D89"/>
<path transform="translate(633,289)" d="m0 0h6v8h-3v-2h-2v-2l-3-1v-2z" fill="#2B2F34"/>
<path transform="translate(1414,1852)" d="m0 0 1 3-5 2h-16l-12-2v-1l13 1h14z" fill="#2B90FE"/>
<path transform="translate(563,1556)" d="m0 0 3 1 1 7 1 4-1 2h2v3l-3-1-3-12z" fill="#EC9A86"/>
<path transform="translate(850,1231)" d="m0 0 5 1 3 3-1 4-5-2-3-4z" fill="#FDFDFD"/>
<path transform="translate(555,1521)" d="m0 0 3 1v7l2 1-1 4h2v2h-3l-3-10z" fill="#ED9C88"/>
<path transform="translate(607,1742)" d="m0 0 3 1 1 12 1 2-2 2-3-12z" fill="#EB9B87"/>
<path transform="translate(603,1726)" d="m0 0h3l2 13-2 3-3-12z" fill="#ED9C88"/>
<path transform="translate(611,1759)" d="m0 0 3 2 1 4-1 4h2l-1 5-2-2-2-8z" fill="#EF9D89"/>
<path transform="translate(547,1488)" d="m0 0 3 1 1 5-1 3 2 1-1 4-2-2z" fill="#EE9C88"/>
<path transform="translate(599,1709)" d="m0 0 3 1 1 7v8l-2-4-2-8z" fill="#EF9D89"/>
<path transform="translate(595,1692)" d="m0 0 1 2h2l1 7v7l-2-4-2-8z" fill="#EF9D89"/>
<path transform="translate(1409,289)" d="m0 0 9 1-3 3-5 2z" fill="#2A2E33"/>
<path transform="translate(515,1429)" d="m0 0 3 1 2 5 3 1v5l-4-4-4-6z" fill="#EF9D89"/>
<path transform="translate(507,1417)" d="m0 0 3 1 2 5 3 1-2 4-6-9z" fill="#EF9D89"/>
</svg>
