<?xml version="1.0" encoding="UTF-8"?>
<svg version="1.1" viewBox="0 0 2048 2048" width="1280" height="1280" xmlns="http://www.w3.org/2000/svg">
<path transform="translate(70,51)" d="m0 0h88l16 2 12 4 13 7 12 11 8 10 7 15 3 13v244h32l2-18 5-16 6-11 9-12 8-8 14-9 11-5 12-3 12-1h126l18 2 14 5 14 8 12 11 8 10 6 10 6 18 2 16v3h258l1-36 3-22 6-24 10-25 9-17 10-15 11-14 12-13 8-7 12-10 18-12 23-12 19-7 19-5 17-3 11-1h61l24 3 21 5 22 8 23 12 15 10 14 11 22 22 10 13 12 19 8 16 8 20 6 22 3 20 1 13v29h259v-8l3-16 5-13 5-9 9-12h2l1-3 13-10 14-7 14-4 12-1h125l14 1 15 4 14 7 14 11 8 9 8 13 5 13 3 15v10h32v-239l3-16 5-12 8-12 5-6 14-11 16-7 9-2 10-1h89l16 2 12 4 11 6 11 9 9 11 8 16 4 12v552l-6 16-7 13-11 12-9 7-14 7-17 4h-104l-15-4-14-7-9-7-8-8-7-11-5-11-3-11-1-8v-238l-34 1-4 13-8 16-6 9-8 9-1 9-1 385-2 16-5 16-8 16-8 11-13 13-14 9-12 6-21 6-12 2h-25l-22-4-17-6-25-12-22-12-27-15-27-16-24-15-30-20-20-14-32-24-14-11-5-4-3-1-1 6-10 19-10 17-13 20-10 18-10 22-8 24-6 26-5 37 17-6 14-3 8-1h26l22 4 21 8 16 9 14 11 14 14 10 14 9 16 6 16 4 18 11 83 11 87 2 33-1 37-3 25-6 31-7 26-8 28-5 24-3 23-2 38-2 9-6 9-8 6-12 4v79l9 2 10 6 6 9 3 8 1 62 7 14 8 13 12 20 19 32 17 28 14 24 7 17 4 20v20l-3 16-6 16-9 16-12 14-12 10-14 8-15 6-13 3-9 1h-170l-14-2-18-6-16-9-14-12-8-9-9-14-6-13-4-13-2-11v-22l11-65 12-67 4-25v-232l-3-28-7-36-1-9-30 9-21 5-25 4-25 2h-184l-25-2-25-4-24-6-24-8-4 17-5 24-3 25-1 22v204l2 21 8 47 15 85 2 12 1 11v10l-2 16-5 16-8 16-8 11-8 9-14 11-15 8-15 5-9 2-9 1h-170l-14-2-18-6-16-9-14-12-9-10-11-18-6-16-3-14v-26l4-18 7-16 9-16 17-28 17-29 17-28 13-22 3-5 1-5-1-225-3-26-5-25-10-35-6-23-5-26-3-24-1-13v-41l4-39 19-145 4-20 5-15 10-19 8-11 9-10 12-12 18-12 17-8 20-6 14-2h25l18 3 17 5 3 1v-10l-4-29-6-25-8-24-10-22-14-24-10-15-12-21-7-15v-3l-6 3-12 10-32 24-17 12-36 24-24 15-27 16-25 14-24 13-15 8-20 8-19 5-14 2h-24l-20-4-16-6-16-9-12-11-8-8-9-14-7-15-4-16-1-7-1-17v-379l-15-20-8-16-4-13v-2l-34 1-1 242-4 16-7 14-8 10-10 9-15 8-14 4-6 1h-104l-15-4-12-6-9-7-10-10-7-11-5-11-3-10v-273l7-11 8-7 13-4 1-1 1-78-10-2-10-6-6-7-4-7v-157l7-19 7-11 9-10 10-8 14-7 12-3zm473 366-6 18-7 14-10 13-7 7-14 10-15 8v89l4-2 7-9 4-5 12-12 8-7 14-12 19-14 17-11 21-12 21-10 25-9 25-6 19-3 10-1 37-1h78l2-2-1-13-1-29-1-1zm700 0-2 44 2 1h92l34 2 23 4 23 6 24 9 19 9 24 14 15 10 21 16 8 7h2v2l8 7 21 21 5 6h2v-87l-3-3-14-7-14-11-7-7-10-14-7-15-4-13-1-1z"/>
<path transform="translate(798,521)" d="m0 0h27l4 4 12 19 10 13 8 9v10l-3 24v43l4 36 5 24 6 21 8 22 9 19 10 17 9 13 11 13 11 12 13 11 15 10 19 9 14 5 14 3 8 1h24l21-4 18-6 19-10 14-10 13-12 12-12 10-13 10-15 14-27 9-24 7-24 4-20 3-21 2-33v-14l-1-23-3-19 1-7 8-8 13-18 11-17 1-1h27l1 1v16l-2 46v62l3 52 4 40 6 36 6 28 10 32v6l-8 16-10 22-11 33-6 26-4 27-3 42-14 7-21 10-16 11-14 11-8 7-7 8-10 12-9 13-10 17-8 9-10 4h-170l-8-4-5-5-7-10-11-18-10-13-11-12-9-9-17-13-19-11-19-9-9-4-1-9-1-23-3-26-5-26-8-27-10-27-8-17-7-12 1-6 8-26 7-30 6-36 3-26 3-39 1-24v-79l-1-32z" fill="#FAA85F"/>
<path transform="translate(991,194)" d="m0 0h66l20 4 15 5 16 8 13 8 14 11 14 14 10 13 7 11 7 15 5 15 3 16 2 10v122l-4 21-6 17-7 13-8 12-11 14-22 22-11 9-11 10-13 10-11 6-8 3-23 2h-63l-14-4-14-7-7-5v-2l-4-2-11-10-6-4-5-5-17-16-9-9-10-13-8-14-7-16-4-10-2-13-1-1-1-7v-117l1-17 2-6 2-11 6-16 6-12 7-11 12-16 13-13 15-11 16-9 5-3 17-6 17-4z" fill="#FCDAC8"/>
<path transform="translate(353,493)" d="m0 0h70l1 1 1 152 3 16 6 9 8 7 6 3 6 2h15l11-4 5-1v-2l8-7 6-9 5-8 4-8h2l2-5 14-19 13-15 7-7 5-6 8-7 10-9 12-9h2v-2l7-4 5-2v-2h3v-2l12-6 5-3 17-9 16-6 21-6 19-3 9-1h40l2 5 2 49v81l-2 37-5 43-4 24-2 2-5-6-1-3-5-4-4-4-12-7-8-2h-22l-11 4-5 1v2l-7 4-13 11-17 13-18 14-17 12-39 26h-2v2l-7 4-22 13-8 5-25 14-7 4-16 9-19 10-13 6-14 4h-25l-10-3-6-3v-2l-4-2-5-5-5-7-4-11-1-5-1-28v-243l1-89z" fill="#FBDAC8"/>
<path transform="translate(1334,1039)" d="m0 0h25l11 3 12 6 12 9 7 7 9 13 5 13 2 12 2 10 18 139 2 18v62l-2 14-1 2-2 15-6 24-7 22-7 30-3 12-1 11-2 8-2 40v19l4 8v3h2l5 6 13 5 6 2v79l-13 3-10 7-4 7-2 3-1 14-1 32h-117l-1-85v-103l-1-24-4-37-4-16-1-8-3-9-11-37-3-16-3-12-3-22-1-13v-34l5-44 6-47 7-52 5-39 4-15 10-18h2l2-4 8-8 6-4h2v-2l8-4z" fill="#FBDAC8"/>
<path transform="translate(1624,493)" d="m0 0h72v368l-3 10-9 12-7 5-12 5-9 2h-14l-17-4-12-5-18-10-12-6-9-5-10-6-11-6-14-8-10-6-9-6-7-4-22-14-10-7-16-11-8-5v-2l-5-2-13-10-9-6v-2l-4-2-14-11-2-1v-2l-4-2-10-8-10-5-10-4h-13l-12 2-9 2v2l-7 4-9 8-1 2h-2l-2 6-2 1-1-2-1-11-2-7-3-21-3-27-2-29-1-39v-25l2-58 1-16 1-6h37l25 3 22 5 17 6 16 8 20 11 16 11 12 9 13 11 13 12 7 7 7 8 13 16 9 13v2h2l4 7 6 10 1 4h2v3h2l4 6 3 3 3 1v2l4 1 8 3h18l10-4 9-7 6-9 3-11 1-1v-112z" fill="#FBDAC8"/>
<path transform="translate(689,1039)" d="m0 0h24l16 5 13 8 10 9 8 9 1 4h2l5 13 1 1 1 7 2 7 10 76 2 22 1 1 4 30 1 15 1 1 3 27v51l-4 29-5 23-5 17-7 24-3 12-6 32-3 33-1 3-1 199h-116l-1-1-1-202-3-31-4-25-7-28-10-33-5-24-1-10-2-10-1-11v-48l9-73 6-44 6-48 4-20 5-13 7-10 7-8 11-9 12-6z" fill="#FBD9C8"/>
<path transform="translate(1218,1082)" d="m0 0h1l-1 11-13 101-6 46-3 26-1 14v38l3 31 1 6v9l-8 4-27 8-25 5-19 2h-194l-24-3-19-4-20-6-13-5-2-2 3-22 2-22v-41l-4-39-18-135-2-16v-5l4 2 11 9 9 10 7 10 14 23 8 10 8 8 14 9 11 5 16 4 14 1h157l15-1 19-5 15-8 10-8 8-8 10-15 10-17 9-11 9-10z" fill="#658B95"/>
<path transform="translate(96,111)" d="m0 0h27l39 1 5 3 1 2 1 13v523l-3 6-6 3h-92l-6-4-2-10-1-254-4-11-7-8-12-5-7-2 1-79 13-4 6-4 7-8 3-9 1-139 1-8 6-5z" fill="#658B95"/>
<path transform="translate(1911,111)" d="m0 0h32l38 1 5 4 1 3v536l-5 6-4 1-49 1-42-1-5-3-3-4-1-7v-515l1-15 5-5 2-1z" fill="#658B95"/>
<path transform="translate(1284,1757)" d="m0 0h134l8 13 27 45 17 28 8 14 10 17 6 14v15l-4 11-7 9-9 8-10 4-6 1-28 1h-97l-41-1-11-4-8-6-6-7-6-12-1-5v-11l6-37 16-89z" fill="#658B95"/>
<path transform="translate(630,1757)" d="m0 0h133l2 3 13 74 9 51 1 15-2 9-5 9-9 10-8 5-12 3-32 1h-101l-33-1-11-4-8-6-7-8-6-13-1-11 3-12 8-16 17-28 19-32 17-28 12-20z" fill="#658B95"/>
<path transform="translate(117,111)" d="m0 0 45 1 5 3 1 2 1 13v523l-3 6-6 3h-92v-1l33-1 13-1v-50l1-332v-164z" fill="#4C727A"/>
<path transform="translate(1911,111)" d="m0 0h32l38 1 5 4 1 3v536l-5 6-4 1-49 1-42-1v-1l45-1v-18l1-53v-445l1-32h-23z" fill="#4C727A"/>
<path transform="translate(914,617)" d="m0 0h3v2h3v2h3v2l4 1 4 2v2l5 1 7 4 15 5v2h8l18 3h82l20-4 15-5 10-4 11-7h3v-2l4-1v-2l4-1v27l-3 26-3 14-1 1-3 14-6 18-9 20-2 4h-2l-1 5-3 5h-2v3h-2v3h-2l-1 4h-2l-2 4-12 13-11 9-7 4-12 6-10 3h-26l-16-5-6-3v-2l-5-2-11-8-12-12-12-16-1-4h-2l-6-12-5-9-4-10-5-13-6-23-4-22-2-25z" fill="#FAD9C7"/>
<path transform="translate(1578,334)" d="m0 0h131l7 3 5 5 4 5 1 3v53l-3 9-3 6-9 9-9 5-4 1h-109l-9-4-10-9-6-10-2-7v-51l3-7 7-8z" fill="#FAD9C7"/>
<path transform="translate(338,334)" d="m0 0h130l9 4 7 8 1 8v52l-5 12h-2l-2 4-4 4h-2v2l-9 4-14 1h-98l-7-3-9-6-7-9-4-10v-56l6-9 6-5z" fill="#FBD9C8"/>
<path transform="translate(630,1757)" d="m0 0h133l2 3 13 74 9 51 1 15-2 9-5 9-9 10-8 5-12 3-32 1h-101l-33-1v-1l117-1 16-2 6-13 3-13v-20l-8-52-6-35-3-16-4-24h-76l-3 2z" fill="#4C727A"/>
<path transform="translate(1284,1757)" d="m0 0h134l8 13 27 45 17 28 8 14 10 17 6 14v15l-4 11-7 9-9 8-10 4-6 1-28 1h-97l-41-1v-1l136-1 2-2 6-16 3-14v-18l-3-12-8-17-10-17-21-35-12-19v-3h-2l-12-20v-2l-87-1z" fill="#4C727A"/>
<path transform="translate(1262,784)" d="m0 0h1l5 21 9 29v6l-8 16-10 22-11 33-6 26-4 27-3 42-14 7-11 5h-9l-1-2v-9l7-51 8-44 11-44 9-27 3-7 7-17 7-14 5-8h3v-2h3z" fill="#FB854B"/>
<path transform="translate(1222,521)" d="m0 0h27v1h-14v7l-6 16-8 18-7 12-10 15-7 9-2 1-1 3-1 11h-1l-1-23-3-19 1-7 8-8 13-18 11-17z" fill="#F9854C"/>
<path transform="translate(798,521)" d="m0 0h27l4 4 12 19 10 13 8 9v10l-3 24-2 2-1-5h-3l-5-6-10-15-10-18-6-12-8-19v-5l-13 1z" fill="#F6854D"/>
<path transform="translate(351,496)" d="m0 0h1l1 38v327h-1l-1-5-1-28v-243z" fill="#5B818B"/>
<path transform="translate(1218,1082)" d="m0 0h1l-1 11-13 101-6 46-3 26-1 14v38l3 31 1 13-2-4-3-17-2-33v-14l3-39 3-25 2-18 2-14 2-18 2-16 2-19 1-2 2-24 3-16 1-3-4 1v-2l-3-1-1-4-7 6 2-4 7-7z" fill="#4C727A"/>
<path transform="translate(1286,1474)" d="m0 0h1l2 23 1 51v86l-1 62 2 1h-3l-1-85v-103z" fill="#587E87"/>
<path transform="translate(1144,1378)" d="m0 0h7v1l-20 3-11 1h-194l-11-1v-1h187l4-2h32z" fill="#4C727A"/>
<path transform="translate(962,640)" d="m0 0 9 1 13 2h89v1l-14 2-30 1h-29l-25-3-13-3z" fill="#5A8089"/>
<path transform="translate(1218,1082)" d="m0 0h1l-1 11-2 15-2 3v-9l1-2-4 1v-2l-3-1-1-4-7 6 2-4 7-7z" fill="#4D737B"/>
<path transform="translate(1222,521)" d="m0 0h27v1l-23 1-4 2-2 4-5 4 2-5z" fill="#AB8A68"/>
<path transform="translate(1213,534)" d="m0 0 2 1-2 5-12 16-3-1 10-13z" fill="#E0985E"/>
<path transform="translate(829,1083)" d="m0 0 4 2 1 6-3 1v6h-1z" fill="#4C727A"/>
</svg>
