<?xml version="1.0" encoding="UTF-8"?>
<svg version="1.1" viewBox="0 0 2048 2048" width="1280" height="1280" xmlns="http://www.w3.org/2000/svg">
<path transform="translate(1214,1098)" d="m0 0h688l16 2 15 4 17 7 15 9 11 9 11 10 13 17 10 19 6 17 3 16 1 13v669l-1 19-4 19-6 16-8 16-12 16-15 15-18 12-17 8-16 5-17 3-19 1h-657l-20-1-17-3-15-5-16-8-11-7-11-9-13-13-10-14-9-17-6-17-4-22v-691l3-17 5-16 6-14 10-16 11-13 9-9 14-10 14-8 15-6 15-4z" fill="#A2E046"/>
<path transform="translate(145,1098)" d="m0 0h687l21 3 18 6 16 8 13 9 11 9 11 12 9 13 9 17 6 18 3 16 1 11v677l-3 24-7 21-8 16-9 13-11 12-7 7-14 10-19 10-19 6-17 3-19 1h-656l-22-1-20-4-20-8-14-8-14-11-13-13-11-15-9-17-7-21-3-21v-686l3-19 5-17 8-16 9-14 11-13 7-7 15-11 14-8 15-6 15-4z" fill="#68A8FE"/>
<path transform="translate(147,28)" d="m0 0h684l22 3 18 6 16 8 13 9 14 12 11 13 9 14 8 17 5 17 2 12 1 11v678l-3 23-8 24-10 18-10 13-14 14-14 10-12 7-18 7-18 4-20 2h-666l-18-1-16-3-17-6-16-8-13-9-12-11-8-8-10-14-9-17-7-21-3-21v-686l3-19 5-16 6-14 10-16 9-11 10-10 18-13 15-8 18-6 14-3z" fill="#FD671A"/>
<path transform="translate(1217,28)" d="m0 0h683l18 2 18 5 16 7 16 10 10 9 8 7 11 14 8 13 7 15 5 17 2 11 1 13v669l-1 19-3 16-6 17-8 16-9 13-11 12-7 7-14 10-19 10-15 5-20 4-15 1h-666l-17-1-20-4-20-8-14-8-13-10-15-15-10-14-9-17-6-17-4-22v-691l3-17 5-17 8-16 9-14 12-14 11-10 10-7 14-8 15-6 21-5z" fill="#FDD649"/>
<path transform="translate(265,1240)" d="m0 0h285l26 2 22 5 16 6 16 8 13 8 11 8 12 11 8 8 12 16 9 16 7 15 6 20 3 15 2 21v73l-3 22-6 20-7 16-9 17-7 11 4 8 10 16 7 16 7 23 3 18 1 13v74l-3 22-5 19-8 18-8 15-10 14-9 11-13 13-16 12-21 12-14 6-21 6-12 2-12 1-40 1h-255l-1-1-1-48v-588z" fill="#FEFAFA"/>
<path transform="translate(450,171)" d="m0 0h77l21 2 22 5 21 7 20 9 4 3 7 4 17 12 13 12 15 15 8 10v2h2l1 4h2l4 7 5 9 10 21 7 22 5 24 1 10 1 24v245l1 124-2 1h-126l-1-1-1-135h-192l1 39v96l-1 1h-127l-1-33v-317l1-36 2-20 6-26 8-22 8-16 8-14 9-12 9-11 7-8h2l2-4 22-18 18-11 16-8 25-9 23-5z" fill="#FDF9FA"/>
<path transform="translate(1590,170)" d="m0 0h67l42 1 18 1 1 1 1 59v66l-1 1h-189l-17 2-13 5-13 9-9 9-7 11-5 13-1 4-1 16v214l1 38 2 13 4 9 5 8 9 11 12 9 11 5 12 3 13 1 168 1 18 1 1 60v67h-183l-24-1-24-4-18-5-20-8-23-12-17-12-10-9-8-7-13-14-13-18-11-19-7-16-7-21-4-20-1-9-1-22v-244l2-27 3-18 5-18 8-20 12-23 14-19 14-15 12-11 16-12 15-9 16-8 15-6 17-5 23-4 20-1z" fill="#FEFAFA"/>
<path transform="translate(1810,1314)" d="m0 0 5 1 8 8 8 7 10 9 15 14 10 9 12 11 7 7 7 6v2l4 2 8 7 1 3-7 8-16 16-7 8-11 12-12 13-7 7-7 8-8 8-7 8-12 13-11 12-7 7-7 8-8 8-7 8-12 13-11 12-7 7-7 8-8 8-7 8-12 13-11 12-7 7-7 8-8 8-7 8-12 13-11 12-7 7-7 8-8 8-7 8-12 13-11 12-7 7-7 8-8 8-7 8-12 13-11 12-10 10-7 8-12 13-5-3-28-28-8-7-8-8-8-7-17-16-10-10-8-7-17-17-8-7-10-10-8-7-8-8-8-7-13-13-8-7-17-17-8-7-8-8-8-7-8-8-8-7-11-11-8-7-17-17-8-7-10-10 1-4 17-17 7-8 12-12 7-8 8-8 7-8 16-16 7-8 3-3 6 1 9 10 10 9 7 7 8 7 11 11 8 7 9 9 8 7 12 12 8 7 16 16 8 7 11 11 8 7 8 8 8 7 13 13 8 7 14 14h4l7-8 11-12 15-16 9-10 29-31 13-14 1-2h2l2-4 10-10 7-8 7-7 7-8 15-16 7-8 9-9 7-8 16-17 12-13 9-10 8-8 7-8 7-7 7-8 15-16 7-8 9-9 7-8 15-16 22-24z" fill="#FDF9FA"/>
<path transform="translate(451,298)" d="m0 0h76l15 4 14 7 10 9 7 8 8 15 3 11 1 8v78l-1 42h-191l-1-41v-75l2-16 6-15 8-11 11-11 14-8 12-4z" fill="#FD681A"/>
<path transform="translate(431,1368)" d="m0 0h127l10 5 7 6 9 13 1 4v71l-3 8-6 8-8 7-6 3-18 2h-93l-57-1-1-52v-26l1-46 1-1z" fill="#68A8FF"/>
<path transform="translate(410,1623)" d="m0 0h149l10 5 8 8 7 11 1 4v71l-3 8-8 10-8 6-10 3-17 1h-79l-63-1-3-1-1-76 1-48z" fill="#68A8FF"/>
</svg>
