<?xml version="1.0" encoding="UTF-8"?>
<svg version="1.1" viewBox="0 0 2048 2048" width="1280" height="1280" xmlns="http://www.w3.org/2000/svg">
<path transform="translate(18)" d="m0 0h2011l12 9 7 10v693l-7 10-7 6-7 3-11 1h-138l-10-2-8-5-6-7-3-7v-7h-90l-1 7-5 10-8 7-7 3-14 1h-74l-10-2-9-6-6-9-2-7v-4l-89 1-3 10-5 8-6 5-7 3-15 1h-1473l-10-2-9-6-7-10-1-2v-693l8-11z" fill="#67A5FC"/>
<path transform="translate(1242,1467)" d="m0 0h237l48 1 21 3 16 5 12 5 18 10 14 11 15 15 12 17 10 19 6 18 3 14 2 23v9h363l12 2 6 4 5 5 6 9v241l-7 11-8 6-9 3-367 1-3 27-4 15-7 16-10 16-11 13-4 5-8 7-12 10-18 12-17 9-20 8-19 6-22 5h-334l-26-7-16-8-14-11-10-11-8-13-6-12-6-18-4-19-2-16-1-15v-316l2-19 5-20 8-19 11-18 11-13 13-13 15-11 12-7 17-7 18-5 16-2z" fill="#010101"/>
<path transform="translate(1209,807)" d="m0 0h313l19 2 16 4 16 6 17 9 14 10 15 14 12 15 10 17 7 17 4 13 3 19 1 24h370l9 4 7 6 6 10v241l-7 10-7 6-8 3-369 1-3 32-5 21-9 21-9 15-10 13-15 15-17 12-16 8-19 7-19 4-10 1h-321l-16-2-21-6-20-9-15-10-13-11-10-10-13-18-10-19-7-21-3-17-1-12v-311l2-18 4-17 6-16 9-17 10-14 14-15 12-10 14-9 16-8 15-5 20-4z" fill="#010101"/>
<path transform="translate(134,807)" d="m0 0h312l19 2 17 4 16 6 15 8 14 10 10 9 11 11 12 17 8 15 7 19 4 20 2 28 369 1 8 3 7 5 6 10 1 3v238l-6 12-7 6-9 3-368 1-1 4-2 25-5 22-6 16-9 17-12 16-11 12-12 10-18 11-15 7-21 6-20 3h-321l-21-3-16-5-12-5-15-8-12-9-10-9-5-5-10-11-10-15-9-19-6-19-3-13v-339l7-25 8-19 9-15 7-9 9-10 9-9 12-9 15-9 16-7 17-5 13-2z" fill="#010101"/>
<path transform="translate(163,1467)" d="m0 0h240l49 1 21 3 16 5 18 8 14 9 10 8 10 9 9 10 9 13 11 21 6 18 3 16 2 29h361l13 2 8 5 6 7 3 7v239l-5 10-7 7-7 3-6 1-366 1-2 29-5 22-5 13-8 16-10 15-11 12-10 10-16 11-17 9-13 5-23 6-5 1h-332l-28-7-15-6-15-8-14-10-13-12-10-11-10-15-8-16-5-13-6-23v-229l8-11 8-6 11-3 1-82 2-8-5-2-10-9-4-8-1-4v-9l5-13 10-16 7-9 9-10 12-11 15-10 17-9 18-6 15-3 9-1z" fill="#68A6FD"/>
<path transform="translate(18)" d="m0 0h2011l12 9 7 10v693l-7 10-7 6-7 3-11 1h-138l-10-2-8-5-6-7-3-7v-7h-16v-1l15-1 2-9 6-9 9-7 10-2h114v-618h-1935v618h1449l13 2 9 6 5 6 5 15-3 9-5 9-7 6-7 3-15 1h-1473l-10-2-9-6-7-10-1-2v-693l8-11z" fill="#020202"/>
<path transform="translate(1209,863)" d="m0 0h312l14 2 15 5 14 8 12 11 8 9 8 14 5 13 2 10v324l-4 16-8 16-7 10-12 12-14 9-13 5-16 4h-320l-14-3-15-6-12-8-10-9-9-11-8-16-4-14-2-16v-304l2-15 5-15 8-15 11-13 10-8 14-8 14-5z" fill="#FDD549"/>
<path transform="translate(1205,1524)" d="m0 0h319l15 3 13 5 13 8 13 11 8 11 8 15 4 14 1 7v317l-5 14-6 10-11 13-13 11-16 10-16 8-21 7-16 3h-323l-9-2-10-6-7-7-7-14-4-15-3-25v-322l2-14 6-16 7-11 11-13 15-11 15-7 11-3z" fill="#A0DD43"/>
<path transform="translate(127,864)" d="m0 0h326l16 4 17 9 10 8 10 10 7 11 6 12 4 16 1 314-1 14-5 16-7 14-9 12-8 8-14 9-14 6-12 3-8 1h-315l-12-2-13-5-13-7-10-8-7-7-7-10-7-14-4-13-1-7-1-20 1-305 4-15 8-16 9-12 7-7 13-9 16-7z" fill="#FD651A"/>
<path transform="translate(163,1467)" d="m0 0h240l49 1 21 3 16 5 18 8 14 9 10 8 10 9 9 10 9 13 11 21 6 18 3 16 2 29h361l13 2 8 5 6 7 3 7v239l-5 10-7 7-7 3-6 1-366 1-2 29-5 22-5 13-8 16-10 15-11 12-10 10-16 11-17 9-13 5-23 6-5 1h-332l-28-7-15-6-15-8-14-10-13-12-10-11-10-15-8-16-5-13-6-23v-229l8-11 8-6 11-3 1-10h1v10l12 3 8 6 5 8 2 6 1 205 2 20 5 16 8 14 11 12 9 8 12 7 14 5 10 2h325l15-4 12-5 13-9 12-12 9-14 6-14 2-9 1-14v-301l-2-20-5-14-7-13-7-9-9-9-14-9-14-6-10-2-11-1h-312l-13 2-16 6-13 8-10 9-9 11-10 17-9 8-8 3h-13l-9-5-7-7-4-8-1-4v-9l5-13 10-16 7-9 9-10 12-11 15-10 17-9 18-6 15-3 9-1z" fill="#010101"/>
<path transform="translate(257,127)" d="m0 0h134l25 2 18 4 16 6 14 8 12 9 10 9 9 10 9 14 8 16 5 15 3 15 1 8v204l-4 24-7 23-11 23-6 9 1 5 11 14 10 13 5 10 1 4v7l-4 11-7 8-10 5-8 1-10-2-8-5-7-7-10-13-5-7-9 6-14 8-14 7-24 8-21 4-27 2h-39l-26-2-25-5-20-7-23-12-17-12-12-11-13-13-10-13-8-13-8-16-6-15-5-18-3-21-1-16v-155l1-35 3-20 7-20 10-18 11-14 10-10 13-10 15-9 14-6 15-4 12-2z" fill="#020303"/>
<path transform="translate(1088,127)" d="m0 0h336l11 2 8 4 7 8 3 7 1 5v102l-3 12-9 10-7 4-5 1h-8l-10-3-10-9-3-5-2-12v-67l-55-1h-57v362l112-1v-69l2-10 6-9 9-6 5-2h13l9 4 5 4 6 9 2 7v100l-2 13-4 6-7 7-10 4-18 1h-66l-263-1-10-4-7-5-5-9-2-14v-89l1-12 5-10 7-7 9-4h13l8 3 8 7 5 10 1 4v73h112l-1-362h-111v72l-2 8-6 9-9 6-6 2h-9l-10-3-10-9-4-10-1-8v-92l1-11 6-12 9-7 4-2z" fill="#020303"/>
<path transform="translate(292,184)" d="m0 0h33l84 1 12 3 14 7 12 11 7 9 7 14 3 13v201l-2 14-5 16-2 6-4-2-10-12-10-13-12-15-20-26-22-28-12-15-10-13-8-10-8-7-7-3h-14l-10 5-7 8-3 8v11l3 8 8 11 33 42 14 18 22 28 14 18 11 14 13 17 1 3-13 8-13 6-16 5-10 2h-79l-13-2-18-6-19-10-11-9-10-9-11-14-6-10-7-15-5-18-1-7-1-18v-177l2-18 6-15 7-10 8-9 14-9 16-6z" fill="#68A6FD"/>
<path transform="translate(1554,127)" d="m0 0h335l12 2 8 4 7 8 4 10v10l-4 10-10 13-13 16-11 14-13 16-20 25-13 16-8 10-11 14-13 16-28 35-9 11-11 14-13 16-11 14-9 11-13 16-8 10-11 14-13 16-11 14-14 17-11 14-13 16-11 14-3 4h249l-1-2v-65l2-12 6-9 7-6 8-3h12l8 3 9 8 4 8 1 4v107l-4 11-5 6-10 6-5 1-46 1h-288l-15-2-8-4-6-5-5-10-1-3v-10l4-10 9-12 14-17 8-10 11-14 14-17 11-14 13-16 11-14 13-16 8-10 11-14 14-17 11-14 13-16 11-14 13-16 8-10 11-14 13-16 11-14 9-11 12-15 9-11 10-13 11-13 10-13 12-16-31 1h-218v75l-4 9-7 8-8 4-3 1h-10l-11-4-9-8-4-11v-109l4-9 7-8 9-5z" fill="#020203"/>
<path transform="translate(621,127)" d="m0 0 11 2 10 6 6 9 2 5 1 308 1 33 4 15 7 13 9 11 12 9 11 5 12 3 91 1 78-1 13-4 11-6 10-8 8-9 6-10 5-15 1-7 1-337 4-9 7-8 9-5 9-1 9 2 8 5 7 8 3 8v343l-3 17-6 18-10 19-10 13-9 10-12 10-16 10-16 7-19 5-15 2-40 1h-67l-55-1-20-3-18-6-16-8-13-9-13-12-10-11-9-14-8-16-6-21-2-17v-334l2-8 4-7 8-7 7-3z" fill="#020203"/>
<path transform="translate(204,1606)" d="m0 0h128l16 4 15 8 11 9 9 11 7 12 5 16 2 16v26l-3 21-4 11-6 11-4 7 9 15 5 14 2 11 1 12v23l-2 16-4 13-7 14-9 11-10 9-14 8-16 5-8 1h-120l-10-4-8-7-4-9-1-4v-257l3-9 7-9z" fill="#020202"/>
<path transform="translate(1314,1605)" d="m0 0h34l44 1 14 3 13 5 12 7 9 7 12 12 9 14 6 14 3 11 2 15v130l-3 17-5 14-9 16-11 13-12 10-16 9-15 5-5 1-36 1h-44l-35-1-9-3-8-8-4-9-1-5v-254l4-11 7-8 10-5z" fill="#020203"/>
<path transform="translate(581,1013)" d="m0 0h334l1 1v167h-335z" fill="#474F53"/>
<path transform="translate(1656,1013)" d="m0 0h335v168h-335z" fill="#474F53"/>
<path transform="translate(581,1673)" d="m0 0h37l297 1 1 1v166l-1 1h-334z" fill="#474F53"/>
<path transform="translate(1657,1673)" d="m0 0 334 1v167l-1 1h-333l-1-1v-162z" fill="#474F53"/>
<path transform="translate(270,945)" d="m0 0h40l14 2 15 5 16 8 9 7 5 4 9 11 8 13 6 15 4 19 1 12v179l-2 8-6 12-8 6-7 3h-11l-8-3-6-4-6-8-3-9-1-5v-68h-98v69l-3 10-6 10-10 7-4 1h-11l-8-3-6-4-5-6-4-11-1-8v-161l1-26 4-21 5-13 10-15 12-13 10-8 12-7 14-5 9-2z" fill="#020202"/>
<path transform="translate(1338,945)" d="m0 0h97l10 2 6 4 7 8 4 11-1 10-5 10-7 7-6 3-5 1-104 1-9 4-8 6-6 7-4 9-1 6v126l3 12 6 9 7 6 8 4 4 1 100 1 10 2 7 4 6 7 4 8 1 9-3 10-4 6-7 7-8 3h-106l-13-2-16-5-13-7-12-9-10-10-10-15-7-17-3-16v-144l5-19 5-11 7-12 14-15 12-9 14-7 13-4z" fill="#020202"/>
<path transform="translate(1316,1661)" d="m0 0h57l13 1 11 4 8 6 6 8 4 10v136l-4 9-6 8-9 7-8 3-6 1h-66z" fill="#A0DD43"/>
<path transform="translate(268 1e3)" d="m0 0h42l13 5 10 9 6 11 1 50v18l-1 1h-99v-62l2-10 8-11 7-6z" fill="#FD651A"/>
<path transform="translate(1651,675)" d="m0 0h79l13 2 7 4 7 8 4 10v4h29v1h-29l-1 7-5 10-8 7-7 3-14 1h-74l-10-2-9-6-6-9-2-7v-4h-15v-1h15l1-8 4-8 8-8 6-3z" fill="#030304"/>
<path transform="translate(241,1786)" d="m0 0h84l8 4 5 7 2 10v28l-2 8-7 8-9 3h-80l-1-1-1-18v-47z" fill="#68A6FD"/>
<path transform="translate(241,1662)" d="m0 0h84l8 4 5 7 2 10v28l-2 8-7 8-9 3h-80l-1-1-1-23v-35z" fill="#68A6FD"/>
</svg>
