<svg version="1.1" xmlns="http://www.w3.org/2000/svg" xmlns:xlink="http://www.w3.org/1999/xlink" width="642" height="839" viewBox="0,0,195.875,256"><g fill="#000033" fill-rule="nonzero" stroke="none" stroke-width="1" stroke-linecap="butt" stroke-linejoin="miter" stroke-miterlimit="10" stroke-dasharray="" stroke-dashoffset="0" font-family="none" font-weight="none" font-size="none" text-anchor="none" style="mix-blend-mode: normal"><path d="M0,256v-256h195.875v256z" id="bgRectangle"></path></g><g fill="none" fill-rule="nonzero" stroke="none" stroke-width="1" stroke-linecap="butt" stroke-linejoin="miter" stroke-miterlimit="10" stroke-dasharray="" stroke-dashoffset="0" font-family="none" font-weight="none" font-size="none" text-anchor="none" style="mix-blend-mode: normal"><g transform="translate(-0.76728,-7.19507) scale(0.30513,0.30513)"><path d="M625.105,210.172l-59.14,139.603l16.304,6.907l59.14,-139.603z" fill="#939598"></path><path d="M625.105,210.172l-59.14,139.603l16.304,6.907l59.14,-139.603z" fill="#80fbff"></path><path d="M375.595,184.387l-16.654,47.387l37.926,3.851l-1.229,-54.627z" fill="#939498"></path><path d="M423.443,140.721l9.336,45.543l-13.814,-2.297z" fill="#c7c8d1"></path><path d="M421.644,206.176c-3.456,-0.956 -6.609,-2.777 -9.163,-5.289c-2.553,-2.512 -4.42,-5.633 -5.426,-9.067c6.852,5.147 12.211,6.085 15.632,5.908c0.615,-11.165 1.404,-24.227 2.331,-36.787c2.299,-31.189 -13.644,-40.306 -27.252,-42.536c-21.381,-3.503 -31.558,2.628 -32.784,31.654c-1.045,25.025 15.121,31.817 15.121,31.817c9.23,36.177 40.857,37.279 40.857,37.279z" fill="#c7c8d1"></path><path d="M399.363,145.009c0,0 36.607,5.116 42.246,-32.175c0,0 -12.603,9.211 -34.181,5.375c-22.716,-4.029 -40.664,-0.699 -49.295,18.958c-5.908,13.454 1.323,31.625 11.09,40.493c0,0 24.184,1.135 30.14,-32.651z" fill="#5c7cfa"></path><path d="M378.99,186.728c5.811,0 10.521,-4.699 10.521,-10.496c0,-5.796 -4.71,-10.496 -10.521,-10.496c-5.811,0 -10.522,4.7 -10.522,10.496c0,5.797 4.711,10.496 10.522,10.496z" fill="#c7c8d1"></path><path d="M415.337,165.12l-8.855,-1.419l-0.455,2.827l8.855,1.418z" fill="#5c7cfa"></path><path d="M398.805,117.711c0,0 13.223,-0.192 25.187,-17.438c5.264,19.492 -7.928,23.732 -7.928,23.732z" fill="#5c7cfa"></path><path d="M375.996,120.107c-4.402,-0.988 -8.965,-1.022 -13.382,-0.101c-4.416,0.922 -8.583,2.778 -12.218,5.443c6.956,-0.178 13.794,1.83 19.544,5.74z" fill="#5c7cfa"></path><path d="M365.277,127.645c0,0 -11.423,2.334 -14.881,10.858c0,0 9.818,-4.977 14.881,-2.943z" fill="#5c7cfa"></path><path d="M375.105,119.706c9.608,-7.572 18.262,-0.882 27.907,-15.356c1.08,2.26 1.506,4.776 1.228,7.264c-0.277,2.489 -1.245,4.851 -2.795,6.819z" fill="#5c7cfa"></path><path d="M172.561,449.963l12.897,7.872c10.356,-9.801 66.322,-84.602 55.18,-121.86l-35.334,10.702l-31.845,102.821z" fill="#c7c8d1"></path><path d="M561.049,799.858l-33.856,21.589l-213.865,-345.095l66.101,-51.666z" fill="#5c7cfa"></path><path d="M527.193,821.447l11.233,17.527l82.414,-54.47l-59.791,15.354z" fill="#ffffff"></path><path d="M173.1,490.694c11.716,0 21.214,-9.475 21.214,-21.162c0,-11.688 -9.498,-21.163 -21.214,-21.163c-11.717,0 -21.215,9.475 -21.215,21.163c0,11.687 9.498,21.162 21.215,21.162z" fill="#c7c8d1"></path><path d="M579.947,362.88c11.717,0 21.215,-9.475 21.215,-21.163c0,-11.688 -9.498,-21.162 -21.215,-21.162c-11.716,0 -21.215,9.474 -21.215,21.162c0,11.688 9.499,21.163 21.215,21.163z" fill="#c7c8d1"></path><path d="M398.886,288.044c0,0 -22.804,-35.391 -71.432,-26.796c-91.342,16.115 -122.133,85.42 -122.138,85.43z" fill="#5c7cfa"></path><path d="M203.052,435.651c19.424,-27.577 45.53,-73.139 37.588,-99.676l-35.333,10.702l-25.042,80.844z" fill="#5c7cfa"></path><path d="M377.343,472.406l-36.735,214.97l-172.979,129.767h-39.256c0,0 74.323,-143.914 158.258,-155.882c0,0 -24.494,-132.975 5.492,-194.161z" fill="#80fbff"></path><path d="M128.373,817.15v20.601h95.141l-55.885,-20.601z" fill="#ffffff"></path><path d="M330.054,204.219c-13.934,8.36 -8.809,24.627 -10.09,30.127c-2.392,10.273 -9.75,5.747 -9.866,27.367c-0.012,1.435 0.29,2.855 0.884,4.162c0.594,1.308 1.466,2.47 2.556,3.407l2.692,2.299c6.414,14.33 90.387,-26.407 90.387,-26.407h-5.612c0.326,-1.896 6.296,-4.332 6.296,-4.332c-0.76,-10.024 -77.247,-36.623 -77.247,-36.623z" fill="#80fbff"></path><path d="M377.343,472.406l-85.208,-5.299c0,0 -13.118,-162.135 35.362,-210.496c38.172,-38.083 79.803,-15.769 79.803,-15.769z" fill="#ffffff"></path><path d="M567.511,352.638l-4.276,-14.468c-14.271,0.339 -95.849,13.536 -123.342,52.186l23.614,26.975l103.023,-64.947z" fill="#c7c8d1"></path><path d="M545.883,365.404l-5.179,-24.173c-33.438,3.669 -71.484,15.779 -93.766,40.851l-89.299,-115.978c0,0 -34.052,34.938 -5.858,75.39c48.758,69.957 111.718,75.835 111.73,75.835z" fill="#80fbff"></path><path d="M326.316,422.379v-2.37l38.759,-0.372v2.37z" fill="#5c7cfa"></path><path d="M48.5777,573.81l-25.0101,51.401l-17.99763,-8.758l16.26733,-33.432c4.8286,-9.924 16.801,-14.047 26.7404,-9.211z" fill="#5c7cfa"></path><path d="M166.328,631.104l-25.01,51.4l17.998,8.757l16.267,-33.432c4.829,-9.924 0.686,-21.889 -9.255,-26.725z" fill="#5c7cfa"></path><path d="M173.898,521.929l-7.624,-3.71l9,-18.498c3.847,-7.906 0.533,-17.473 -7.386,-21.327c-7.92,-3.853 -17.491,-0.555 -21.338,7.351l-9.001,18.498l-7.624,-3.71l9.001,-18.498c5.885,-12.104 20.54,-17.151 32.663,-11.252c12.124,5.899 17.198,20.545 11.309,32.648z" fill="#5c7cfa"></path><path d="M147.407,685.468l-129.8171,-63.165l42.2115,-86.753c17.4123,-35.786 60.5886,-50.658 96.4376,-33.215c35.848,17.442 50.794,60.593 33.381,96.381l-42.211,86.753z" fill="#ffffff"></path><path d="M134.25,557.172l-7.591,-3.694c-20.075,-9.768 -44.2551,-1.441 -54.0068,18.6l-21.3438,43.866l80.2896,39.067l21.344,-43.866c9.753,-20.041 1.383,-44.205 -18.692,-53.973z" fill="#80fbff"></path><path d="M121.098,574.556c9.017,4.388 19.877,0.647 24.257,-8.354c4.379,-9.001 0.62,-19.855 -8.397,-24.242c-9.017,-4.388 -19.877,-0.647 -24.257,8.354c-4.379,9.001 -0.62,19.855 8.397,24.242z" fill="#5c7cfa"></path><path d="M375.9,128.289l-9.515,1.168l3.875,31.578l9.515,-1.168z" fill="#939498"></path><path d="M378.836,190.642c9.555,-1.172 16.357,-9.814 15.193,-19.301c-1.164,-9.487 -9.854,-16.228 -19.408,-15.056c-9.555,1.173 -16.357,9.814 -15.193,19.302c1.164,9.487 9.854,16.228 19.408,15.055z" fill="#80fbff"></path><path d="M385.829,180.524c3.935,-4.999 3.05,-12.212 -1.977,-16.112c-5.027,-3.899 -12.292,-3.008 -16.226,1.991c-3.935,5 -3.05,12.213 1.977,16.113c5.026,3.899 12.291,3.008 16.226,-1.992z" fill="#ffffff"></path><path d="M361.288,90.7763l10.426,-1.2793c1.991,-0.2444 3.802,1.1606 4.045,3.1378l3.934,32.0612c0.49,3.991 -2.372,7.626 -6.391,8.119l-3.082,0.378c-4.019,0.494 -7.674,-2.342 -8.164,-6.333l-3.934,-32.061c-0.243,-1.9772 1.175,-3.7784 3.166,-4.0227z" fill="#80fbff"></path><path d="M381.172,167.743l-9.415,1.155l1.147,9.349l9.415,-1.155z" fill="#5c7cfa"></path><path d="M70.5206,180.064c-3.0495,-1.714 -5.9511,-3.783 -8.5936,-6.315c-16.9884,-16.272 -17.4776,-43.334 -1.0926,-60.44c5.8792,-6.138 13.1371,-10.121 20.8051,-12.005c-1.1654,-12.0083 2.7112,-24.4676 11.7479,-33.9018c15.9816,-16.6848 42.0906,-17.6895 59.1316,-2.6341c1.093,-1.483 2.252,-2.929 3.561,-4.2961c16.385,-17.1057 43.443,-17.7812 60.432,-1.5086c11.86,11.3607 15.653,27.971 11.304,42.7886c6.357,1.843 12.377,5.172 17.482,10.062c16.989,16.273 17.478,43.335 1.093,60.441c-11.537,12.044 -28.354,15.904 -43.235,11.476c8.258,15.795 5.971,35.8 -7.119,49.465c-16.385,17.106 -43.443,17.781 -60.431,1.509c-16.385,17.105 -43.4432,17.781 -60.4316,1.508c-15.6417,-14.972 -17.2626,-39.066 -4.6538,-56.149z" fill="#c7c8d1"></path><path d="M291.664,201.516c-7.788,8.131 -20.648,8.452 -28.723,0.717c-8.075,-7.734 -8.307,-20.595 -0.519,-28.726c7.788,-8.131 20.647,-8.452 28.722,-0.717c8.075,7.735 8.308,20.596 0.52,28.726z" fill="#c7c8d1"></path><path d="M332.612,184.824c-4.67,4.875 -12.38,5.067 -17.221,0.43c-4.842,-4.638 -4.981,-12.349 -0.312,-17.224c4.67,-4.875 12.38,-5.067 17.221,-0.43c4.842,4.638 4.981,12.349 0.312,17.224z" fill="#c7c8d1"></path><path d="M200.86,149.126c0,2.013 -0.117,4.025 -0.293,5.979c-0.059,0.414 -0.117,0.888 -0.176,1.302c-0.012,0.071 -0.018,0.143 -0.035,0.219c-0.041,0.344 -0.094,0.693 -0.141,1.084c-0.176,1.125 -0.41,2.249 -0.645,3.374c-1.407,6.335 -3.87,12.255 -7.212,17.583c-0.176,0.296 -0.411,0.651 -0.587,0.947l-2.111,3.019c-0.111,0.148 -0.228,0.296 -0.351,0.444c-1.243,1.611 -2.592,3.126 -3.988,4.588c-2.052,2.072 -4.222,4.026 -6.567,5.802c-0.411,0.296 -0.821,0.592 -1.29,0.947c-0.117,0.119 -0.235,0.178 -0.411,0.296c-1.383,0.965 -2.82,1.865 -4.298,2.694c-1.401,0.787 -2.844,1.515 -4.327,2.173c-1.771,0.793 -3.589,1.491 -5.453,2.089c-0.135,0.042 -0.276,0.089 -0.411,0.131c-0.375,0.118 -0.75,0.231 -1.132,0.337c-1.377,0.403 -2.779,0.752 -4.198,1.042c-1.407,0.296 -2.815,0.533 -4.28,0.71c-0.786,0.095 -1.537,0.19 -2.311,0.249c-0.205,0.018 -0.41,0.036 -0.621,0.047c-1.232,0.06 -2.463,0.119 -3.694,0.119h-0.763c-1.718,-0.024 -3.418,-0.124 -5.095,-0.308c-12.232,-1.308 -23.273,-6.725 -31.729,-14.848c-1.231,-1.184 -2.404,-2.427 -3.518,-3.729c-2.58,-2.96 -4.867,-6.275 -6.7435,-9.768c-1.1141,-2.072 -2.1109,-4.204 -2.9318,-6.394c-1.2901,-3.374 -2.2869,-6.867 -2.8733,-10.479c-0.041,-0.195 -0.0762,-0.396 -0.1055,-0.597c-0.1701,-1.001 -0.2756,-2.037 -0.4222,-3.073c-0.1759,-1.954 -0.2932,-3.907 -0.2932,-5.861v-1.125c0.0762,-4.594 0.7213,-9.051 1.8764,-13.296c0.5922,-2.196 1.3252,-4.334 2.1755,-6.406c0.129,-0.319 0.2638,-0.639 0.4045,-0.959c0.2698,-0.639 0.5512,-1.278 0.8503,-1.906c0.7388,-1.581 1.5715,-3.126 2.4921,-4.606c0.4687,-0.769 0.9377,-1.598 1.4657,-2.368c0.575,-0.852 1.167,-1.693 1.789,-2.51c1.413,-1.877 2.932,-3.659 4.556,-5.34c0.991,-1.036 2.029,-2.024 3.096,-2.984c0.352,-0.296 0.762,-0.651 1.114,-0.947c0.07,-0.053 0.141,-0.112 0.205,-0.166c0.223,-0.183 0.434,-0.361 0.616,-0.544c0.176,-0.119 0.352,-0.296 0.528,-0.415c0.351,-0.296 0.703,-0.532 1.055,-0.828c0.352,-0.237 0.704,-0.533 1.114,-0.77c0.029,-0.024 0.065,-0.041 0.1,-0.065c3.588,-2.546 7.476,-4.6414 11.616,-6.2458c1.565,-0.6038 3.166,-1.1426 4.802,-1.5984c1.144,-0.3197 2.299,-0.6038 3.477,-0.8525c1.701,-0.3552 3.401,-0.6512 5.161,-0.8288c0.762,-0.0592 1.465,-0.1776 2.228,-0.1776h0.234c0.235,0 0.469,-0.0592 0.704,-0.0592c0.352,0 0.645,-0.0592 0.938,-0.0592h1.877c1.7,0 3.4,0.0592 5.101,0.2368c3.811,0.3552 7.447,1.1248 10.965,2.1904c6.392,2.0129 12.255,5.1503 17.415,9.1763c0.059,0 0.059,0.059 0.118,0.059c0.703,0.533 1.407,1.125 2.111,1.717c1.055,0.888 2.052,1.894 3.049,2.901c0.293,0.296 0.528,0.533 0.762,0.829c1.056,1.065 1.994,2.249 2.932,3.374c0.997,1.243 1.876,2.486 2.756,3.789c0.352,0.592 0.762,1.125 1.114,1.717c0.117,0.177 0.176,0.296 0.293,0.473c0.528,0.888 1.056,1.835 1.525,2.723c0,0.06 0.058,0.119 0.058,0.119c0.528,0.947 0.997,1.953 1.408,2.96c0.234,0.533 0.469,1.066 0.703,1.598c0.293,0.652 0.528,1.303 0.763,1.954c0.527,1.421 0.996,2.901 1.407,4.44c0.293,1.125 0.586,2.19 0.821,3.315c0.117,0.474 0.176,0.947 0.293,1.362c0.059,0.473 0.176,0.947 0.235,1.421c0.058,0.355 0.117,0.71 0.175,1.124c0,0.119 0.059,0.296 0.059,0.415c0.059,0.414 0.117,0.888 0.176,1.302c0.059,0.415 0.117,0.888 0.117,1.303v0.296c0,0.296 0.059,0.592 0.059,0.947v0.71c0,0.356 0.059,0.711 0.059,1.066c0,0.059 0,0.059 0,0.118v0.948c0.058,0.118 0.058,0.236 0.058,0.355z" fill="#ffffff"></path><path d="M185.849,171.835l-8.202,10.617l-7.361,6.866l-1.857,10.26c-1.771,0.793 -3.589,1.491 -5.453,2.089c-0.135,0.042 -0.276,0.089 -0.411,0.131c-0.375,0.118 -0.751,0.231 -1.132,0.337l-4.585,-17.375l-14.847,-14.031l11.446,-22.425l4.679,-0.87l11.517,10.685l15.363,5.477z" fill="#80fbff"></path><path d="M148.883,126.767l-16.043,17.997l6.262,14.214l-2.457,2.379l-23.607,-10.62l-15.8788,-25.184c0.7388,-1.581 1.5715,-3.126 2.4921,-4.606c0.4687,-0.77 0.9377,-1.598 1.4657,-2.368c0.575,-0.852 1.167,-1.693 1.789,-2.51c1.413,-1.877 2.931,-3.659 4.556,-5.34c0.991,-1.036 2.029,-2.025 3.096,-2.984c0.352,-0.296 0.762,-0.651 1.114,-0.947c0.07,-0.053 0.141,-0.112 0.205,-0.166c0.223,-0.183 0.434,-0.361 0.616,-0.544c0.176,-0.119 0.352,-0.296 0.528,-0.415c0.351,-0.296 0.703,-0.533 1.055,-0.829c0.352,-0.236 0.704,-0.532 1.114,-0.769c0.029,-0.024 0.065,-0.042 0.1,-0.065c4.175,-2.208 40.999,14.492 40.999,14.492z" fill="#80fbff"></path><path d="M145.539,164.546l-1.283,3.624l-11.476,-8.552l4.436,-4.925z" fill="#80fbff"></path><path d="M150.046,115.742l-16.02,1.74l-4.1,-11.096l16.251,-4.595z" fill="#ffffff"></path><path d="M156.289,118.5l-14.921,-0.306l-1.912,-7.538l14.309,-1.424z" fill="#80fbff"></path><path d="M131.746,104.703l-3.664,7.988l-11.105,-8.859l11.711,-2.643z" fill="#80fbff"></path><path d="M156.846,184.757l-14.113,-9.902l-0.735,-4.124l2.614,-3.797l16.522,11.592z" fill="#80fbff"></path><path d="M141.253,143.45l-1.572,5.729l-9.556,-9.137l6.998,-7.46z" fill="#80fbff"></path><path d="M520.401,261.854l51.108,22.664l-0.738,1.664l-51.108,-22.664z" fill="#5c7cfa"></path><path d="M567.858,292.097l-0.22,1.811l-57.679,-7.848l0.221,-1.811z" fill="#5c7cfa"></path><path d="M530.6,239.526l44.528,37.488l-1.194,1.379l-44.528,-37.488z" fill="#5c7cfa"></path></g></g></svg>