<svg version="1.1" xmlns="http://www.w3.org/2000/svg" xmlns:xlink="http://www.w3.org/1999/xlink" width="1280" height="1280" viewBox="0,0,256,256"><g transform="translate(25.6,25.6) scale(0.8,0.8)"><g fill="#01012c" fill-rule="nonzero" stroke="none" stroke-width="1" stroke-linecap="butt" stroke-linejoin="miter" stroke-miterlimit="10" stroke-dasharray="" stroke-dashoffset="0" font-family="none" font-weight="none" font-size="none" text-anchor="none" style="mix-blend-mode: normal"><path d="M-32,288v-320h320v320z" id="bgRectangle"></path></g><g fill="#ffffff" fill-rule="nonzero" stroke="none" stroke-width="1" stroke-linecap="butt" stroke-linejoin="miter" stroke-miterlimit="10" stroke-dasharray="" stroke-dashoffset="0" font-family="none" font-weight="none" font-size="none" text-anchor="none" style="mix-blend-mode: normal"><g transform="scale(0.125,0.125)"><path transform="translate(1008,240)" d="M0,0h20l13,4l19,9l19,10l24,12l19,10l36,18l19,10l28,14l19,10l28,14l19,10l28,14l19,10l28,14l19,10l36,18l19,10l20,10l19,10l36,18l19,10l28,14l19,10l28,14l19,10l24,12l19,10l32,16l19,10l28,14l19,10l36,18l19,10l24,12l19,10l32,16l19,10l28,14l19,10l24,12l19,10l17,9l11,8l8,8l7,12l4,12l1,6v15l-4,16l-6,11l-7,9l-12,9l-27,14l-29,15l-24,12l-19,10l-32,16l-19,10l-30,15l-19,10l-30,15l-19,10l-36,18l-19,10l-24,12l-19,10l-24,12l-19,10l-36,18l-19,10l-24,12l-19,10l-28,14l-19,10l-24,12l-19,10l-28,14l-19,10l-36,18l-19,10l-24,12l-19,10l-24,12l-19,10l-36,18l-19,10l-32,16l-19,10l-20,10l-19,10l-32,16l-17,9l-16,6l-16,2l-14,-2l-16,-7l-34,-17l-19,-10l-28,-14l-19,-10l-24,-12l-19,-10l-26,-13l-19,-10l-28,-14l-19,-10l-36,-18l-19,-10l-26,-13l-19,-10l-22,-11l-19,-10l-28,-14l-19,-10l-38,-19l-19,-10l-28,-14l-19,-10l-26,-13l-19,-10l-28,-14l-19,-10l-34,-17l-19,-10l-28,-14l-19,-10l-22,-11l-19,-10l-36,-18l-19,-10l-26,-13l-19,-10l-32,-16l-19,-10l-24,-12l-19,-10l-10,-7l-7,-6l-8,-11l-7,-15v-31l7,-15l8,-11l9,-8l17,-10l44,-22l19,-10l20,-10l19,-10l24,-12l19,-10l38,-19l19,-10l22,-11l19,-10l36,-18l19,-10l24,-12l19,-10l30,-15l19,-10l22,-11l19,-10l42,-21l19,-10l26,-13l19,-10l22,-11l19,-10l30,-15l19,-10l36,-18l19,-10l24,-12l19,-10l30,-15l19,-10l22,-11l19,-10l36,-18l19,-10l32,-16l19,-10l34,-17z"></path><path transform="translate(439,1189)" d="M0,0l4,1l66,33l19,10l32,16l19,10l32,16l19,10l28,14l19,10l24,12l19,10l24,12l19,10l36,18l19,10l24,12l19,10l28,14l19,10l17,9l21,10l24,8l25,5l10,1h26l21,-3l17,-4l20,-7l33,-16l27,-14l17,-9l54,-27l19,-10l24,-12l19,-10l30,-15l19,-10l22,-11l19,-10l44,-22l19,-10l24,-12l19,-10l44,-22l19,-10l32,-16l20,-11h3v399l-3,12l-8,16l-9,12l-8,10h-2v2h-2l-2,4l-8,7l-12,10l-16,12l-15,10l-25,15l-25,13l-16,8l-24,11l-38,15l-47,16l-39,11l-45,11l-41,8l-39,6l-40,5l-48,4l-47,2h-42l-48,-2l-46,-4l-39,-5l-32,-5l-37,-7l-44,-10l-36,-10l-38,-12l-31,-11l-22,-9l-23,-10l-25,-12l-25,-13l-17,-10l-21,-14l-16,-12l-11,-9l-13,-12l-7,-7l-11,-14l-8,-13l-5,-14l-1,-5l-1,-42v-238z"></path><path transform="translate(1987,988)" d="M0,0l3,1l1,377l10,27l30,76l13,35l3,11l1,1v46l-2,1l-5,16l-6,14l-10,16l-13,15l-15,12l-14,8l-16,7l-21,5l-8,1h-20l-18,-3l-18,-6l-19,-10l-14,-11l-13,-13l-11,-16l-8,-16l-5,-15l-3,-15l-1,-19l3,-20l6,-20l22,-56l16,-41l10,-26l1,-3l1,-315l2,-4l21,-10l19,-10l45,-23l28,-14z"></path><path transform="translate(2047,1512)" d="M0,0"></path></g></g></g></svg>