<?xml version="1.0" standalone="no"?>
<!DOCTYPE svg PUBLIC "-//W3C//DTD SVG 20010904//EN"
 "http://www.w3.org/TR/2001/REC-SVG-20010904/DTD/svg10.dtd">
<svg version="1.0" xmlns="http://www.w3.org/2000/svg"
 width="1200.000000pt" height="1200.000000pt" viewBox="0 0 1200.000000 1200.000000"
 preserveAspectRatio="xMidYMid meet">

<g transform="translate(0.000000,1200.000000) scale(0.100000,-0.100000)"
fill="#000000" stroke="none">
<path d="M2450 10881 c-13 -26 -13 -117 1 -143 11 -21 12 -21 25 -3 14 19 19
120 8 149 -8 21 -21 20 -34 -3z"/>
<path d="M3840 10192 c0 -164 2 -191 16 -196 40 -15 44 -9 44 75 l0 81 37 -7
c21 -4 41 -9 45 -11 5 -3 8 -43 8 -89 0 -83 5 -95 41 -95 5 0 9 83 9 195 0
112 -4 195 -9 195 -5 0 -16 3 -25 6 -14 5 -16 -6 -16 -81 0 -78 -2 -86 -17
-81 -10 3 -30 8 -45 12 -27 6 -27 8 -30 92 -3 87 -3 87 -30 90 l-28 3 0 -189z"/>
<path d="M4092 10299 c2 -14 15 -25 38 -33 l35 -11 3 -171 2 -172 25 -4 25 -5
0 168 c0 93 3 169 8 169 4 0 22 -4 40 -9 30 -9 32 -8 32 14 0 20 -7 26 -42 35
-24 6 -66 18 -95 26 -67 19 -75 18 -71 -7z"/>
<path d="M4350 10065 c0 -199 1 -205 41 -205 5 0 9 61 9 138 l1 137 30 -57
c16 -32 31 -58 34 -58 2 0 15 19 29 43 l26 42 0 -138 0 -137 26 -10 c14 -6 27
-10 30 -10 2 0 4 87 4 194 0 168 -2 195 -16 200 -31 12 -42 6 -71 -39 l-29
-45 -31 64 c-24 49 -37 65 -57 68 l-26 5 0 -192z"/>
<path d="M4642 9988 l3 -193 62 -17 c124 -33 125 -33 121 -6 -2 19 -13 26 -63
39 l-60 16 -3 170 c-2 167 -3 171 -25 177 -12 3 -25 6 -30 6 -4 0 -6 -87 -5
-192z"/>
<path d="M6089 9771 c-20 -16 -23 -29 -27 -109 -7 -143 4 -200 43 -238 60 -56
134 -51 155 10 9 26 8 33 -7 43 -24 19 -43 16 -43 -6 0 -43 -67 -48 -84 -6 -3
9 -6 73 -6 141 0 107 2 126 17 131 26 10 67 -19 73 -52 4 -24 11 -31 33 -33
26 -3 27 -1 21 25 -10 41 -31 72 -67 93 -40 25 -78 25 -108 1z"/>
<path d="M6330 9710 c-26 -26 -26 -85 -2 -125 11 -16 42 -56 71 -87 56 -61 65
-100 28 -122 -15 -9 -23 -6 -43 17 -13 15 -24 36 -24 46 0 17 -18 31 -41 31
-16 0 -10 -54 10 -86 19 -30 74 -64 106 -64 30 0 53 19 65 54 15 47 -6 94 -75
167 -30 31 -57 68 -61 83 -7 28 9 56 32 56 22 0 54 -38 54 -64 0 -22 16 -36
41 -36 16 0 9 54 -11 88 -20 33 -71 62 -110 62 -11 0 -29 -9 -40 -20z"/>
<path d="M6573 9655 c-54 -38 -34 -116 52 -206 30 -31 57 -68 61 -83 7 -28 -9
-56 -32 -56 -22 0 -54 38 -54 64 0 16 -7 26 -22 29 -32 9 -37 1 -28 -39 11
-47 44 -81 92 -96 34 -10 42 -9 66 9 23 18 27 28 27 71 -1 47 -4 54 -68 127
-57 65 -68 82 -65 109 6 60 63 41 85 -29 12 -39 53 -49 53 -13 0 37 -34 90
-71 110 -41 22 -68 23 -96 3z"/>
<path d="M1391 9016 c-134 -128 -243 -236 -242 -240 0 -3 4 -7 7 -7 9 -2 494
462 494 473 0 4 -3 8 -7 8 -5 0 -118 -105 -252 -234z"/>
<path d="M1391 8896 c-134 -128 -243 -236 -242 -240 0 -3 4 -7 7 -7 9 -2 494
462 494 473 0 4 -3 8 -7 8 -5 0 -118 -105 -252 -234z"/>
<path d="M1391 8776 c-134 -128 -243 -236 -242 -240 0 -3 4 -7 7 -7 9 -2 494
462 494 473 0 4 -3 8 -7 8 -5 0 -118 -105 -252 -234z"/>
<path d="M1391 8656 c-134 -128 -243 -236 -242 -240 0 -3 4 -7 7 -7 9 -2 494
462 494 473 0 4 -3 8 -7 8 -5 0 -118 -105 -252 -234z"/>
<path d="M1390 8535 c-135 -129 -244 -237 -242 -240 1 -3 5 -6 8 -6 9 -2 494
462 494 473 0 4 -3 8 -7 8 -5 0 -118 -106 -253 -235z"/>
<path d="M4181 8709 c-30 -27 -66 -46 -113 -60 -72 -22 -71 -22 -413 -3 -125
7 -198 -7 -295 -56 -66 -33 -164 -119 -187 -163 -19 -38 -13 -128 12 -177 l17
-32 -41 -42 c-67 -68 -86 -124 -85 -241 1 -113 27 -207 90 -330 19 -38 65
-151 100 -250 36 -99 69 -183 73 -188 4 -4 30 3 57 15 40 18 67 22 149 22 94
0 149 -12 237 -48 13 -6 28 14 74 96 31 57 79 138 106 181 l48 79 -15 44 c-21
62 -19 151 3 194 11 19 35 44 55 55 34 18 39 19 64 5 15 -9 38 -31 50 -49 l23
-34 0 45 c0 60 17 155 37 200 16 38 44 55 98 60 28 3 32 9 58 83 67 190 75
352 23 458 -29 59 -46 66 -46 18 0 -32 -19 -91 -29 -91 -4 0 -13 28 -20 63
-13 64 -52 158 -74 175 -9 7 -25 -1 -56 -29z"/>
<path d="M1390 8415 c-135 -129 -244 -237 -242 -240 1 -3 5 -6 8 -6 9 -2 494
462 494 473 0 4 -3 8 -7 8 -5 0 -118 -106 -253 -235z"/>
<path d="M1390 8295 c-135 -129 -244 -237 -242 -240 1 -3 5 -6 8 -6 9 -2 494
462 494 473 0 4 -3 8 -7 8 -5 0 -118 -106 -253 -235z"/>
<path d="M1390 8175 c-135 -129 -244 -237 -242 -240 1 -3 5 -6 8 -6 9 -2 494
462 494 473 0 4 -3 8 -7 8 -5 0 -118 -106 -253 -235z"/>
<path d="M1390 8055 c-135 -129 -244 -237 -242 -240 1 -3 5 -6 8 -6 9 -2 494
463 494 473 0 4 -3 8 -7 8 -5 0 -118 -106 -253 -235z"/>
<path d="M8187 8103 c-9 -15 -109 -344 -105 -348 1 -2 14 -5 27 -7 23 -3 27 5
77 171 30 95 51 177 48 182 -6 11 -41 12 -47 2z"/>
<path d="M7928 8017 c-83 -19 -88 -22 -88 -46 1 -21 18 -39 97 -96 54 -38 101
-71 105 -73 4 -2 8 7 8 21 0 19 -16 36 -77 78 -85 59 -85 59 20 79 51 10 57
14 57 36 0 29 -4 29 -122 1z"/>
<path d="M8280 7957 c0 -18 18 -36 75 -76 41 -28 75 -55 75 -60 0 -4 -33 -14
-72 -22 -67 -13 -73 -16 -73 -39 0 -29 -4 -29 128 1 121 29 120 41 -18 142
-57 42 -107 77 -110 77 -3 0 -5 -10 -5 -23z"/>
<path d="M4285 6509 c-28 -78 -36 -113 -42 -174 -15 -180 66 -401 223 -611 61
-80 80 -99 88 -86 3 5 -19 41 -50 80 -84 108 -158 241 -195 349 -30 89 -33
108 -33 218 0 91 4 132 18 169 12 34 14 52 7 59 -7 7 -12 6 -16 -4z"/>
<path d="M9363 5818 c-72 -72 -73 -74 -73 -125 0 -48 2 -54 31 -68 35 -19 79
-13 103 14 14 15 16 38 14 135 l-3 117 -72 -73z"/>
<path d="M840 4384 l0 -1279 193 191 c105 104 425 419 710 698 l517 508 0 392
0 392 -687 183 c-379 100 -698 184 -710 188 l-23 5 0 -1278z"/>
<path d="M6300 5341 c-52 -19 -110 -67 -110 -93 0 -24 87 -95 134 -108 83 -23
184 -1 244 53 29 27 28 48 -4 87 -59 70 -168 95 -264 61z"/>
<path d="M10480 4186 l-1104 -1083 -54 14 c-30 8 -56 12 -58 10 -2 -2 -3 -507
-2 -1121 l3 -1118 1162 1133 1162 1134 0 1058 c1 581 0 1057 -1 1057 -2 0
-500 -488 -1108 -1084z"/>
<path d="M4436 4667 c-3 -23 -8 -84 -12 -135 l-7 -93 -51 -38 c-95 -71 -196
-119 -327 -156 l-56 -16 -6 -97 c-16 -230 -97 -381 -245 -454 -62 -31 -73 -33
-167 -32 -84 1 -125 8 -259 43 -87 23 -160 40 -162 38 -6 -5 270 -91 406 -126
223 -58 340 -75 525 -76 149 0 179 3 240 22 39 13 87 33 107 45 20 13 170 147
333 298 163 151 302 275 308 275 7 0 19 -47 31 -122 l20 -122 -30 -55 c-36
-69 -340 -445 -479 -595 -167 -178 -406 -264 -635 -227 -65 10 -694 179 -756
203 -7 2 -13 -14 -16 -42 -3 -25 -14 -55 -23 -65 -14 -16 -15 -21 -4 -25 8 -2
167 -47 354 -100 187 -52 362 -103 389 -111 75 -25 266 -15 371 19 43 14 81
24 84 22 11 -12 -61 -92 -100 -113 -35 -18 -56 -23 -102 -20 l-57 3 0 -197 0
-198 -29 -32 c-24 -27 -36 -32 -87 -35 -47 -3 -66 0 -92 16 -43 28 -52 55 -52
162 0 49 -3 89 -7 89 -18 0 -76 -56 -93 -90 -69 -135 52 -275 235 -273 80 0
125 16 180 64 65 58 83 139 46 212 l-19 37 57 0 c105 0 176 61 358 304 42 55
93 119 114 141 21 22 50 66 64 98 33 72 65 239 47 245 -7 2 -12 8 -12 13 0 6
53 76 119 157 126 156 158 208 176 286 11 47 14 31 89 -419 43 -257 82 -480
85 -494 6 -21 18 -28 72 -43 98 -26 222 -23 285 6 28 13 60 36 72 51 28 36 29
14 1 -58 -39 -103 -116 -166 -200 -167 -32 0 -94 15 -142 35 -17 7 -18 3 -12
-51 3 -32 11 -83 17 -112 10 -53 10 -54 71 -83 68 -32 131 -37 201 -17 56 16
161 124 297 303 59 77 114 147 123 155 42 34 100 207 94 282 -3 41 -5 43 -53
61 -71 27 -180 20 -260 -17 -33 -15 -67 -34 -76 -42 -16 -14 -17 -2 -23 173
-15 474 -36 772 -68 938 -6 33 -12 61 -12 62 -1 1 -247 68 -548 147 -300 80
-577 154 -616 165 l-70 19 -6 -41z"/>
<path d="M7853 4333 c-71 -63 -73 -66 -73 -112 0 -36 5 -53 20 -66 28 -25 85
-25 111 1 18 18 19 31 17 131 l-3 111 -72 -65z"/>
<path d="M6830 3185 l0 -477 43 38 c23 21 196 190 385 375 267 263 339 338
325 343 -10 3 -175 46 -368 96 -192 50 -358 93 -367 96 -17 5 -18 -22 -18
-471z"/>
<path d="M2653 3449 c2 -65 7 -83 32 -124 42 -68 57 -67 23 2 -15 32 -35 90
-43 128 l-14 70 2 -76z"/>
<path d="M6830 2059 l0 -413 98 95 c243 235 571 559 566 559 -5 0 -606 155
-646 166 -17 5 -18 -19 -18 -407z"/>
<path d="M4591 2156 l-94 -94 29 -15 c43 -21 101 -29 124 -17 25 13 41 44 51
95 8 41 1 125 -10 125 -4 0 -49 -42 -100 -94z"/>
<path d="M2812 1840 c3 -49 9 -65 33 -90 16 -17 37 -30 47 -30 26 0 119 54
151 88 l28 29 -125 32 c-69 17 -128 31 -132 31 -3 0 -4 -27 -2 -60z"/>
<path d="M4720 1355 c0 -81 35 -135 88 -135 11 0 39 11 62 24 43 24 114 85
107 92 -3 4 -241 64 -252 64 -3 0 -5 -20 -5 -45z"/>
<path d="M3444 1028 c-62 -60 -92 -82 -107 -80 -46 6 36 -47 90 -58 63 -14 89
-3 109 45 16 40 19 161 4 170 -6 4 -49 -31 -96 -77z"/>
</g>
</svg>
