<svg version="1.1" xmlns="http://www.w3.org/2000/svg" xmlns:xlink="http://www.w3.org/1999/xlink" width="800px" height="800px" viewBox="0,0,256,256"><g transform="translate(25.6,25.6) scale(0.8,0.8)"><g fill="#ffffff" fill-rule="nonzero" stroke="none" stroke-width="1" stroke-linecap="butt" stroke-linejoin="miter" stroke-miterlimit="10" stroke-dasharray="" stroke-dashoffset="0" font-family="none" font-weight="none" font-size="none" text-anchor="none" style="mix-blend-mode: normal"><path d="M-32,288v-320h320v320z" id="bgRectangle"></path></g><g fill="#000033" fill-rule="nonzero" stroke="none" stroke-width="1" stroke-linecap="butt" stroke-linejoin="miter" stroke-miterlimit="10" stroke-dasharray="" stroke-dashoffset="0" font-family="none" font-weight="none" font-size="none" text-anchor="none" style="mix-blend-mode: normal"><g transform="translate(3.82513,0.2716) scale(10.66667,10.66667)"><path d="M4.0744,2.9938c0.05823,-1.03009 0.30429,-1.47803 1.00992,-1.83774c0.75925,-0.38716 1.95674,-0.20699 3.36582,0.50655c0.60692,0.30748 0.66872,0.31374 1.73236,0.17737c1.4138,-0.18133 3.2339,-0.18069 4.5388,0.00166c0.9868,0.1379 1.0516,0.13101 1.66,-0.17711c2.0001,-1.01285 3.5792,-0.94658 4.151,0.17417c0.2854,0.55942 0.3384,2.01101 0.1171,3.20825c-0.1227,0.66374 -0.1097,0.74661 0.1859,1.18217c2.0797,3.06473 0.5812,8.03248 -2.9825,9.88638c-0.2727,0.1419 -0.5025,0.2297 -0.6898,0.3012c-0.5751,0.2196 -0.7497,0.2863 -0.5383,1.2971c0.1018,0.4862 0.2244,1.695 0.2726,2.6864c0.0871,1.792 0.0858,1.8045 -0.2285,2.1701c-0.4278,0.4973 -1.0444,0.5057 -1.4622,0.0199c-0.2725,-0.3168 -0.2991,-0.4664 -0.2991,-1.6887c0,-1.8063 -0.198,-3.0069 -0.6658,-4.0357c-0.5563,-1.2243 -0.1439,-1.6808 1.1283,-1.9544c1.7683,-0.3804 3.1494,-1.4717 3.9192,-3.0968c0.7319,-1.5448 0.8422,-3.67959 -0.481,-4.97792c-0.3763,-0.44718 -0.4025,-0.85222 -0.1338,-2.07359c0.1004,-0.45649 0.1846,-1.04541 0.1871,-1.30884c0.0038,-0.41602 -0.0341,-0.47884 -0.2896,-0.47884c-0.1617,0 -0.7795,0.23521 -1.3727,0.52264l-0.9468,0.4589c-0.0861,0.04171 -0.1824,0.05775 -0.2774,0.04685c-2.4075,-0.27634 -4.6951,-0.28061 -7.11438,0.00108c-0.09536,0.0111 -0.19209,-0.00494 -0.27847,-0.04686l-0.9463,-0.4592c-0.59326,-0.28795 -1.21103,-0.52341 -1.37268,-0.52341c-0.37376,0 -0.37938,0.27594 -0.0387,1.91537c0.20811,1.00125 0.34815,1.22435 -0.25346,2.02494c-0.90176,1.20004 -1.12701,2.6902 -0.64344,4.25588c0.60947,1.973 2.10193,3.3059 4.20016,3.7506c1.26487,0.2681 1.59547,0.6179 1.11247,2.0683c-0.3802,1.1414 -0.6206,1.4356 -1.17313,1.4356c-0.74342,0 -1.20911,-0.644 -0.95283,-1.3179c0.11288,-0.297 0.0793,-0.3287 -0.61713,-0.5827c-2.12594,-0.7751 -3.75197,-2.5124 -4.49539,-4.8032c-0.57461,-1.77046 -0.32178,-4.07491 0.60003,-5.46777c0.31386,-0.47425 0.31872,-0.51447 0.17225,-1.42236c-0.08287,-0.51395 -0.12769,-1.34114 -0.0996,-1.83837z"></path><path d="M3.33203,15.9454c-0.30635,-0.4595 -0.92722,-0.5837 -1.38675,-0.2773c-0.45952,0.3063 -0.5837,0.9272 -0.27735,1.3867c0.22617,0.3393 0.49674,0.618 0.72651,0.8477c0.04236,0.0424 0.08352,0.0833 0.12371,0.1232c0.19247,0.1912 0.36241,0.36 0.53309,0.5604c0.37751,0.4431 0.75412,1.0399 0.96816,2.1101c0.09534,0.4767 0.43799,0.7335 0.62785,0.8457c0.2059,0.1216 0.43087,0.1933 0.616,0.24c0.37871,0.0955 0.83844,0.1451 1.27474,0.174c0.47896,0.0318 0.99793,0.0421 1.462,0.0449c0.00034,0.5519 0.44792,0.9993 0.99999,0.9993c0.55229,0 1,-0.4477 1,-1v-1c0,-0.5523 -0.44771,-1 -1,-1c-0.09427,0 -0.19626,0.0003 -0.30429,0.0007c-0.58686,0.0018 -1.35181,0.0041 -2.02551,-0.0405c-0.32487,-0.0215 -0.59193,-0.052 -0.78777,-0.0893c-0.30158,-1.1839 -0.78879,-1.9716 -1.30868,-2.5819c-0.22982,-0.2697 -0.4678,-0.5057 -0.66137,-0.6977c-0.03624,-0.0359 -0.07092,-0.0703 -0.10371,-0.1031c-0.22335,-0.2233 -0.36945,-0.3821 -0.47662,-0.5429z"></path></g></g></g></svg>