<svg version="1.1" xmlns="http://www.w3.org/2000/svg" xmlns:xlink="http://www.w3.org/1999/xlink" width="800px" height="800px" viewBox="0,0,256,256"><g transform="translate(25.6,25.6) scale(0.8,0.8)"><g fill="#80fbff" fill-rule="nonzero" stroke="none" stroke-width="1" stroke-linecap="butt" stroke-linejoin="miter" stroke-miterlimit="10" stroke-dasharray="" stroke-dashoffset="0" font-family="none" font-weight="none" font-size="none" text-anchor="none" style="mix-blend-mode: normal"><path d="M-32,288v-320h320v320z" id="bgRectangle"></path></g><g fill="#000033" fill-rule="nonzero" stroke="none" stroke-width="1" stroke-linecap="butt" stroke-linejoin="miter" stroke-miterlimit="10" stroke-dasharray="" stroke-dashoffset="0" font-family="none" font-weight="none" font-size="none" text-anchor="none" style="mix-blend-mode: normal"><g transform="scale(0.64694,0.64694)"><g><path d="M197.849,0c-75.718,0 -137.318,61.609 -137.318,137.329c0,72.887 124.591,243.177 129.896,250.388l4.951,6.738c0.579,0.792 1.501,1.255 2.471,1.255c0.985,0 1.901,-0.463 2.486,-1.255l4.948,-6.738c5.308,-7.211 129.896,-177.501 129.896,-250.388c0,-75.72 -61.61,-137.329 -137.33,-137.329zM197.849,88.138c27.13,0 49.191,22.062 49.191,49.191c0,27.115 -22.062,49.191 -49.191,49.191c-27.114,0 -49.191,-22.076 -49.191,-49.191c0,-27.129 22.076,-49.191 49.191,-49.191z"></path></g></g></g></g></svg>