<svg version="1.1" xmlns="http://www.w3.org/2000/svg" xmlns:xlink="http://www.w3.org/1999/xlink" width="800px" height="800px" viewBox="0,0,256,256"><g transform="translate(25.6,25.6) scale(0.8,0.8)"><g fill="#ffffff" fill-rule="nonzero" stroke="none" stroke-width="1" stroke-linecap="butt" stroke-linejoin="miter" stroke-miterlimit="10" stroke-dasharray="" stroke-dashoffset="0" font-family="none" font-weight="none" font-size="none" text-anchor="none" style="mix-blend-mode: normal"><path d="M-32,288v-320h320v320z" id="bgRectangle"></path></g><g fill="#000033" fill-rule="nonzero" stroke="none" stroke-width="1" stroke-linecap="butt" stroke-linejoin="miter" stroke-miterlimit="10" stroke-dasharray="" stroke-dashoffset="0" font-family="none" font-weight="none" font-size="none" text-anchor="none" style="mix-blend-mode: normal"><g transform="translate(-0.00042,0) scale(0.71972,0.71972)"><g><g><g><path d="M345.923,287.653l-55.22,-55.25c-4.3,-4.293 -10.299,-6.652 -16.874,-6.652c-6.924,0 -13.606,2.695 -18.326,7.416l-29.844,29.855l-8.077,-4.479c-17.75,-9.849 -42.045,-23.329 -67.716,-49.035c-25.772,-25.737 -39.268,-50.099 -49.137,-67.912l-4.414,-7.839l29.901,-29.897c9.893,-9.917 10.232,-25.707 0.75,-35.212l-55.234,-55.227c-4.305,-4.29 -10.289,-6.659 -16.855,-6.659c-6.929,0 -13.607,2.708 -18.324,7.443l-13.571,13.643l-1.279,2.083c-5.041,6.476 -9.175,13.757 -12.274,21.683c-2.87,7.563 -4.66,14.745 -5.476,21.945c-7.116,59.195 20.173,113.527 94.218,187.559c87.77,87.748 161.109,94.576 181.495,94.576c3.482,0 5.603,-0.187 6.197,-0.252c7.529,-0.907 14.735,-2.721 22.014,-5.543c7.848,-3.062 15.102,-7.17 21.557,-12.214l3.087,-2.426l12.688,-12.454c9.877,-9.889 10.201,-25.663 0.714,-35.152z"></path></g><g><path d="M226.283,155.849c2.246,2.252 4.51,3.408 6.726,3.432c1.711,0.018 3.326,-0.646 4.569,-1.895c0.312,-0.318 0.528,-0.594 0.696,-0.816l69.896,-69.89l21.119,21.109c4.594,4.594 7.619,2.564 8.707,1.462c2.396,-2.39 2.449,-7.371 2.396,-8.497l8.545,-90.469c0.023,-0.462 0.282,-4.611 -2.456,-7.569c-1.134,-1.247 -3.224,-2.716 -6.785,-2.716c-9.771,0.006 -87.832,10.968 -90.757,11.406c-0.931,0 -5.74,0.111 -8.196,2.57c-1.531,1.537 -3.309,4.93 2.102,10.331l19.348,19.354l-69.188,69.175c-1.682,1.693 -3.675,6.059 0.811,10.553z"></path></g></g></g></g></g></g></svg>